<?xml version="1.0" encoding="utf-8"?>
<!-- Generator: Adobe Illustrator 16.0.0, SVG Export Plug-In . SVG Version: 6.00 Build 0)  -->
<!DOCTYPE svg PUBLIC "-//W3C//DTD SVG 1.1//EN" "http://www.w3.org/Graphics/SVG/1.1/DTD/svg11.dtd">
<svg version="1.1" id="Layer_1" xmlns="http://www.w3.org/2000/svg" xmlns:xlink="http://www.w3.org/1999/xlink" x="0px" y="0px"
	 width="996px" height="1071px" viewBox="0 0 996 1071" enable-background="new 0 0 996 1071" xml:space="preserve">
<g>
	<path fill="#FFFFFF" d="M437.97,33.05c10.45-0.439,20.72-2.619,31.1-3.72c14.17,0,28.37,0.5,42.48,1.91
		c15.97,2.7,31.779,6.72,46.779,12.89c9.601,3.4,19.37,6.7,28.061,12.12c7.689,5,16,9.061,23.17,14.83
		c4.2,3.47,8.92,6.23,13.11,9.73c12.01,9.68,21.8,21.71,31.529,33.59c9.551,12.07,17.94,25.24,23.33,39.71
		c2.44,6.59,6.891,12.34,8.311,19.31c4.17,17.94,7.83,36.41,5.979,54.9c-1.29,14.59-3.63,29.12-7.37,43.28
		c-0.729,3.35-0.97,6.859-2.55,9.96c-2.64,5.52-3.96,11.58-6.92,16.95c-2.19,3.779-4.85,7.27-7.39,10.819
		c-0.601-0.54-1.801-1.63-2.4-2.18c-0.78,0.87-1.56,1.75-2.33,2.62c2.54-7.46,4.17-15.21,7-22.57
		c10.271-29.33,12.41-61.03,9.26-91.79c-1.93-14.07-6.02-27.91-12.46-40.58c-2.029-4.04-3.77-8.21-5.47-12.399
		c-2-5-6.82-7.99-9.59-12.49c-4.811-7.45-10.26-14.46-15.79-21.4c-11.74-15.55-27.66-27.189-43.39-38.39
		c-5.98-4.391-12.95-7.09-19.4-10.66c-15.79-8.52-33.28-13.29-50.85-16.47c-6.36-1.221-12.83-1.86-19.15-3.32
		c-5.56-1.25-11.28-1.6-16.96-1.37c-7.32,0.311-14.71,0.01-21.95,1.351c-12.84,2.359-26.08,2.54-38.649,6.329
		c-8.57,2.53-17.49,3.921-25.79,7.311c-4.57,1.84-8.671,4.61-13.011,6.88c-5.35,2.84-10.71,5.74-15.46,9.521
		c-7.14,5.56-14.859,10.34-21.819,16.14c-9.45,8.2-17.69,17.66-26.45,26.56c-7.03,6.92-12.13,15.42-17.66,23.5
		c-5.89,8.34-11.13,17.11-15.77,26.2c-3.04,5.97-4.49,12.58-7.2,18.69c-4.76,10.319-6.93,21.58-8.79,32.72
		c-1.2,8.61-2.88,17.229-2.69,25.97c0.311,23.44,2.32,47.2,9.681,69.59c3.449,8.021,7.189,15.95,11.21,23.7
		c7.31,12.51,16.6,23.931,27.619,33.36c7.79,6.18,14.7,13.38,22.471,19.6c8.96,7.87,17.989,16.2,29.159,20.811
		c3.721,1.479,5.891,5.56,10.051,6.1c3.26,0.72,6.33,2.05,9.35,3.45c1.19,0.63,2.84,0.95,3.39,2.35
		c-5.579-0.97-11.229-1.97-16.319-4.58c-6.58-3.369-14.26-4.149-20.431-8.359c-9.869-6.78-20.899-12.03-29.479-20.561
		c-9.62-7.55-20.37-14.449-26.771-25.199c-2.92-5.271-8.479-8.351-11.39-13.61c-4.1-7.601-9.06-14.74-12.229-22.82
		c-6.73-12.649-9.431-26.89-11.63-40.91c-2.261-17.199-5.03-34.619-2.99-51.989c1.63-13.95,3.04-28.051,7.189-41.521
		c3.99-10.76,8.08-21.5,12.73-32c2.14-4.689,4.05-9.58,7.28-13.66c11.42-15.21,20.529-32.479,35.05-45.1
		c6.6-6.311,11.72-14.22,19.29-19.47c9.21-5.28,16.35-13.53,25.89-18.301c16.13-8.5,32.16-17.489,49.54-23.26
		C425.49,35.21,431.59,33.19,437.97,33.05z"/>
	<g>
		<path fill="#FFFFFF" d="M495.75,152.25c4.89-1.66,10.109-1.76,15.229-1.79c9.6,0.021,19.41,1.58,28,6.051
			c2.17,1.09,3.8,2.93,5.5,4.619c3.93,4,8.59,7.351,11.75,12.07c1.99,3.021,4.21,5.9,6.28,8.87c2.26,3.22,2.87,7.17,3.88,10.88
			c2.979,11.561,5.99,23.46,4.689,35.5c-1.1,9.48-1.09,19.5,2.521,28.48c3.97,6.689,7.51,13.649,10.11,21.01
			c8.02,3.53,16.819,6.3,23,12.85c5.729,6.05,11.689,12.271,14.93,20.09c4.63,10.381,5.21,22.511,12.149,31.811
			c4.511,4.27,10.391,6.74,15.24,10.62c9.67-5.271,20.54-7.5,31.05-10.41c7.07-1.49,15.141-3.18,21.75,0.75
			c7.421,4.479,14.71,9.21,21.641,14.439c5.12,3.79,9.12,8.83,13.84,13.08c6.44,5.931,11.99,12.71,18.22,18.841
			c6.53,6.939,10.69,15.76,17.41,22.56c13.87,14.8,20.98,34.18,32.22,50.79c4.5,7.54,7.341,15.9,11.24,23.74
			c6.42,13.229,11.601,26.99,17.43,40.479c7.91,19.25,14.011,39.16,21.261,58.66c3.51,9.431,5.72,19.311,9.569,28.63
			c5.091,12.641,9.07,25.7,12.94,38.761c3.77,12.97,7.79,25.859,11.43,38.869c3.221,9.95,4.38,20.391,7.33,30.41
			c6.62,22.681,10.65,45.99,15.43,69.101c2.61,13.2,5.16,26.409,7.65,39.63c1.66,11.78,5.78,23.06,6.98,34.93
			c1.859,7.13,2.25,14.49,3.02,21.8c1.63,9.58,2.35,19.271,3.22,28.95c0.67,8.44,2.511,16.75,2.641,25.24
			c1.14,11.34,1.729,22.729,2.52,34.1c2.12,15.51,1.49,31.2,1.4,46.811c-0.7,4.04-2.311,7.99-1.271,12.17
			c-1,0.38-1.989,0.77-2.97,1.16c0.13,3.01,0.37,6.02,0.67,9.029c-1.96,0.84-3.899,1.69-5.83,2.57c0.03,1.561,0.07,3.14,0.12,4.73
			c-10.64,2.09-21.45,0.42-32.16,0.22c-10.75-0.37-21.52-1.07-32.27-0.511c-24.141,1.16-48.311,0.301-72.45,0.23
			c-12.67,0.48-25.34-0.15-38.01-0.29c-16.36-0.01-32.73,0.479-49.09,0.57c-12.641-0.23-25.29-0.36-37.94-0.28
			c-11.37-0.03-22.71,0.939-34.07,0.55c-25.63,1.521-51.29-0.34-76.939-0.06c-26.351,0.02-52.69-1.051-79.03-0.5
			c-8.97-0.12-17.95-0.11-26.92,0.189c-26.36,0.54-52.75-0.35-79.11,0.72c-7.34,0.33-14.66-0.68-21.989-0.38
			c-7.98-0.06-15.94,0.58-23.9,0.851c-7.04,0.279-14.03-0.891-21.06-0.86c-9-0.18-18,0.77-26.99,0.1
			c-16.64-0.979-33.33-0.069-49.979-1.1c-16.011,0.05-32.08,1.18-48.07-0.23c-11.641,0.99-23.33-0.699-34.99,0.461
			c-7.04,0.949-13.97-1.08-21-0.82c-9.689,0.2-19.36-0.7-29.04-0.37c-7.63,0.36-15.27,0.18-22.899,0.51
			c-4.141,0.25-8.051-1.359-12.12-1.76c-3.96-0.45-7.91-1.12-11.71-2.34c0.109-1.26,0.21-2.5,0.29-3.74
			c-1.04-2.14-2.7-4.21-2.54-6.72c0.21-7.46,2.8-14.57,3.71-21.93c1.699-12.341,3.09-24.721,4.29-37.11
			c0-14.36,1.689-28.68,1.359-43.05c-1.02-22.69-3.83-45.271-4.649-67.971c-0.271-6.34,0.04-12.71-0.771-19.02
			c-0.54-5-1.62-9.93-1.87-14.96c-0.399-10.95-2.069-21.79-2.529-32.73c-0.971-8.409,0.47-16.819,0.29-25.239
			c-1.221-11.87,0.319-23.79,1.42-35.62c1.319-11.28,3.399-22.51,7.01-33.3c2.84-8.181,3.5-16.98,6.92-24.99
			c2.57-6.79,6.55-12.9,9.66-19.43c3.43-6.811,3.47-14.851,7.51-21.4c1.98-3.73,5.34-6.45,9.1-8.26
			c0.16-0.431,0.471-1.301,0.631-1.73c-6.78-1.26-14.25-2.979-18.83-8.57c-4.04-6.14-3.75-14.149-7.881-20.199
			c-6.31-6.69-12.729-13.41-17.51-21.32c-4.81-8.94-6.21-19.23-6.8-29.23c-0.64-8.069,0.82-16.079,2-24.029
			c1.62-10.521,5.72-20.55,11.24-29.61c2.52-4.149,6.51-7.11,10.76-9.32c5.86-2.88,10.28-7.81,15.7-11.35
			c7.39-4.86,13.689-11.19,21.28-15.76c6.05-3.7,12.989-5.55,19.85-7.11c5.99-1.3,12.01-3.03,18.22-2.59
			c16.72,0.79,32.16,10.05,42.94,22.52c-6.67-1.88-11.7-7.02-18.15-9.369c-7.66-2.83-15.5-6.051-23.82-5.78
			c-14.859,0.25-28.859,6.12-41.97,12.6c-4.649,2.12-6.7,7.28-11.1,9.73c-4.74,2.89-9.101,6.55-14.44,8.33
			c-7.5,2.029-12.319,8.899-15.84,15.37c-6.65,13.01-8.22,27.89-8.02,42.3c0.54,7.18,1.22,14.569,4.21,21.22
			c1.63,3.89,2.67,8.22,6.12,10.99c0.55,4.82,4.1,8.41,6.409,12.45c2.431,4.18,6.521,7.199,8.32,11.76
			c2.42,5.24,5.05,10.399,6.87,15.91c4.229,1.85,8.51,4.38,13.31,4.02c6.641-0.12,12.771-3.359,17.681-7.62
			c3.859-3.399,8.449-5.83,13.26-7.56c-4.59,6.68-11.92,10.47-18.46,14.91c0.53,2.979,1.06,5.979,1.56,8.979
			c7.44,2.49,14.681,5.521,22.08,8.12c6.811,2.31,12.54,6.82,19.061,9.771c2.31,0.949,3.97,2.859,5.949,4.31
			c3.551-0.49,6.311-3.01,9.141-4.979c8.82-6.761,18.16-12.851,27.87-18.261c11.979-6.18,25.7-7.46,38.979-7.58
			c7.75-1.06,15.34,1.061,22.811,2.851c5.31,1.38,10.47,3.63,14.77,7.08c4.87,4.029,8.141,9.52,11.71,14.64
			c-1.149,5.99-3.46,11.63-5.72,17.25c0.12,2.35,1.78,4.42,2.67,6.59c2.99,5.46,3.74,11.8,6.66,17.29
			c1.99,3.91,4.91,7.25,6.92,11.16c2.75,5.27,4.55,10.97,5.979,16.72c1.41,5.4-0.05,11.01,0.95,16.47
			c1.03,5.12-0.55,10.221-2.149,15.04c-0.851,2.57-2.391,4.891-4.38,6.73c-6.5,6.12-13.761,11.479-21.74,15.51
			c-0.76,5.93-0.82,11.91-0.8,17.88c-1.66,0.71-3.32,1.431-4.96,2.181c5.819,4.31,13.199,5.479,19.239,9.39
			c7.69,4.72,15.011,10.09,21.54,16.34c4.3,4.061,7.93,8.76,12.14,12.91c10.391,10.57,20.511,21.939,33.75,29.04
			c15.66,8.79,32.79,15.04,50.5,18.11c14.891,2.149,29.141-3.801,43.19-7.771c6.85-1.62,13.43-4.95,20.64-4.46
			c12.771-10.05,27.98-17.2,38.551-29.85c11.329-11.761,23.079-23.131,33.909-35.37c5.21-5.96,9.92-12.36,13.881-19.21
			c-0.971-0.45-1.931-0.881-2.891-1.301c-1.88-13.83,0.061-27.76,0.811-41.6c0.399-9.1,2.55-17.979,4.14-26.91
			c1.16-6.939,1.25-14.029,3.05-20.85c2.59-9.96,2.98-20.36,5.98-30.22c1.119-3.521,1.42-7.221,1.26-10.891
			c-3.87,3.07-5.17,7.92-7.22,12.19c-1.82,3.99-5.771,6.22-8.99,8.939c-5.32,4.261-11.22,8.66-18.28,9.07
			c-6.45,0.21-13.24-0.14-19.02-3.3c-13.521-6.8-23.41-18.62-33.051-29.93c-7.84-9.131-15.77-18.2-23.229-27.65
			c-1.4-1.95-3.82-2.56-5.9-3.45c-0.489,11.43,2.44,22.65,2.301,34.07c0.92,13.64,0.18,27.31,0.51,40.96
			c-0.23,18.38,3.399,36.63,2.399,55.02c-1.21,14.391-2.47,28.87-6.069,42.91c-1.721,5.181-6.721,8.08-10.94,11.04
			c-2.28-1.08-4.58-2.13-6.88-3.14c-2.55-5.55-4.01-11.55-4.27-17.65c2.729,2.64,5,5.851,8.27,7.88c4.34,0.181,5.59-4.859,6.47-8.18
			c3.99-20.39,7.44-41.08,6.88-61.93c-0.119-14.101-2.619-28.04-3.06-42.131c-2.27-22.189-0.81-44.88-6.6-66.609
			c-1.91-7.5-6.87-13.66-10.9-20.11c-5.58-7.979-9.95-16.7-15.05-24.97c-4.61-7.77-9.5-15.4-13.351-23.58
			c-3.529-7.28-7.609-14.27-11.689-21.24c-1.36-2.16-1.96-4.66-2.48-7.12c-5.489-3.88-10.79-8.029-15.779-12.55
			c-8.58-7.899-18.471-14.17-27.561-21.45c-4.03-3.31-8.359-6.43-11.28-10.84c-0.71,0.03-2.149,0.09-2.859,0.12
			c1.439,10.19,9.26,17.63,16.59,24.101c7.77,7.17,15.94,13.97,23.04,21.819c7.17,10.38,11.07,22.55,16.729,33.75
			c-0.5,1.74-1.02,3.471-1.529,5.221c1.2,1.46,2.359,2.96,3.58,4.409c-1,0.58-1.99,1.181-2.96,1.79
			c-6.971-5.59-15.5-8.76-22.44-14.359c-2.68-2.11-5.35-4.381-8.63-5.48c-5.93-2.13-11.7-4.689-17.61-6.9
			c0.55,2.431,0.271,5.41,2.44,7.12c7.43,7.261,14.399,15,22.33,21.74c3.729,3.19,7.489,6.7,9.229,11.42
			c3.021,7.891,5.561,16.08,10.17,23.24c4.16,6.31,9.391,11.93,15.521,16.36c6.83,5.119,14.479,8.949,21.75,13.369
			c5.95,4.24,10.27,10.301,15.85,14.99c2.19,1.45,2.04,4.17,2.28,6.49c-1.17-0.01-2.33,0-3.49,0.04
			c-5.91-6.04-11.09-13.61-19.47-16.37c-0.14,4.55,0.15,9.15-0.62,13.68c-1.83,10.601-0.74,21.38-0.68,32.07
			c0.01,10.68,1.51,21.32,1.17,32.02c0.16,12.4,1.149,24.79,3.06,37.051c1.971,19.069,4.69,38.069,8.5,56.87
			c1.82,8.68,9.36,14.22,15.01,20.439c5.58,6.44,12.62,11.32,18.94,16.99c4.91,4.08,10.49,7.41,14.65,12.34
			c-2.03,0.55-4.03,1.29-6.13,1.46c-6.351-2.68-11.381-7.64-17.5-10.74c-6.101-2.979-10.211-8.52-14.95-13.149
			c-5.19-5.15-9.4-11.15-14-16.8c-1.15-1.5-2.46-2.961-2.96-4.82c-4.301-17.35-7.9-34.92-9.32-52.76
			c-1.65-19.25-2.75-38.561-3.13-57.87c-0.38-7.351-1.39-14.681-1-22.05c0.49-9.03-0.88-18.011-0.9-27.03
			c-0.12-8.34,1.63-16.73-0.02-25.01c-5.29-3.41-11.49-5.62-15.79-10.391c-3.87-4.22-8.08-8.18-11.3-12.939
			c-4.341-6.261-4.5-14.45-9.141-20.54c-3.02-3.811-5.85-7.761-8.16-12.03c-5.819-10.33-18.859-13.98-24.119-24.74
			c-1.471-3.569-3.74-7.3-3.101-11.28c0.311-2.489,2.9-3.06,4.811-3.899c5.92,3.97,12.51,6.77,19.199,9.14
			c8.53,2.79,14.721,10.01,23.36,12.601c-0.39-3.69-0.7-7.681-3.28-10.591c-3.47-4.01-4.319-9.35-5.899-14.229
			c-1.37-4.45-4.561-7.96-7.55-11.4c-5.631-6.41-12.141-12-19.131-16.87c-6.069-4.21-10.39-10.31-15.079-15.899
			c-2.431-2.69-2.471-6.521-3.101-9.891c-0.71-3.779-0.07-7.6,1.13-11.189c13.08,8.39,25.67,17.53,37.761,27.3
			c7.649,5.95,15.63,11.561,22.579,18.35c6.11,6.971,10.07,15.48,14.421,23.591c3.21,6.35,7.189,12.26,10.59,18.5
			c8.97,16.04,17.52,32.489,29.199,46.779c4.511,5.761,10.4,10.221,15.08,15.83c2.87,3.221,4.83,7.16,7.87,10.25
			c10.57,10.8,19.771,22.851,30.54,33.45c7.271,6.75,15.94,11.8,24.8,16.17c5.87,3.08,12.94,3.93,19.36,2.41
			c8.87-5.08,14.79-13.99,19.021-23.07c4.63-9.689,5.77-20.83,4.18-31.38c-1.83-12.96-0.29-26.04-0.68-39.06
			c-0.341-15.641,1.09-31.25,0.81-46.88c0.35-9.73,3.15-19.12,4.94-28.63c-1.69,0.5-3.36,1.01-5.03,1.539
			c-0.76,1.41-1.09,3.271-2.58,4.131c-2.05,1.14-4.5,0.85-6.75,1.09c-2.19,1.7-4.311,3.93-7.21,4.25
			c-2.3-1.061-3.97-3.021-5.771-4.721c-1.939,1.66-4.52,3.48-7.13,2.051c-4.189-2.4-5.28-7.49-6.14-11.851
			c-1.73,0.8-3.45,1.62-5.18,2.41c-2.58-4.67-4.24-9.92-3.881-15.31c0.381-4.301-0.899-8.431-2.14-12.49
			c5.021,1.55,8.85,6.18,9.24,11.439c0.17,3.891-0.25,7.78-0.351,11.681c5.851-0.25,6.141,7.2,11.07,8.95
			c0.36-0.641,1.09-1.91,1.45-2.551c4.81,1.07,10.03,0.66,14.24,3.65c3.359-5.56,10.38-4.4,15.88-4.35c-0.05-2-0.101-3.99-0.11-5.98
			c5.3-3.71,5.21-10.64,8.54-15.66c0.71-1.2,1.5-2.35,2.3-3.49c1.19-0.13,2.38-0.239,3.59-0.34c3.04-5.52,4.721-11.609,6.61-17.58
			c0.92-3.26,3.54-5.529,5.65-8.029c-1.4,6.09-1.71,13.13,2.85,18.029c6.26-1.09,12.54-2.96,17.68-6.84
			c7.36-5.49,15.32-10.52,20.96-17.92c8.46-10.09,12.4-22.87,19.011-34.08c4.77-8.37,9.489-16.8,13.279-25.67
			c-3.08-4.37-4.05-9.64-5.569-14.64c-0.47-2.431-2.84-3.45-4.74-4.551c-4.03-2.17-7.18-5.62-11.25-7.72
			c-4.24-2.36-9.54-3.36-12.46-7.57c-4.11-6.01-4.97-13.46-6.87-20.319c-1.42-5.931-4.18-11.4-7.04-16.74
			c-1.22,0.03-2.43,0.07-3.64,0.11c-1.11-3.95-4.45-6.551-6.641-9.86c-3.31-4.85-6.859-9.91-12.199-12.68
			c-4.25-2.051-8.95-2.83-13.41-4.24c-10.61,4.46-20.95,9.57-30.74,15.62c-4.93,2.97-9.47,6.54-14.45,9.43
			c-11.33,6.8-22.09,14.49-32.47,22.66c-7.5,5.1-14.36,11.03-21.57,16.51c-8.6,6.69-17.189,13.53-24.38,21.76
			c3.16,7.131,4.19,14.95,6.97,22.2c2.311,6.021,7.69,10.74,8.221,17.431c0.76,13.95,3.51,27.7,4.33,41.649
			c3.55-0.75,7.21-1.569,10.22-3.72c3.54-2.92,8.31-2.86,12.58-3.85c3.649,5.66,3.31,12.8,6.37,18.729
			c3.329-0.47,6.659-1.09,9.819-2.29c0.61,0.4,1.221,0.83,1.83,1.26c-2.52,1.29-4.87,3.141-7.72,3.601
			c-3.16,0.36-6.31-0.28-9.42-0.74c-1.58-4.899-3.19-9.79-5-14.6c-6.5,2.89-12.71,7.8-20.15,7.41c-3.54-2.591-3.85-7.65-4.76-11.641
			c-2.42-11.189-2.64-22.64-3.229-34.02c-0.011-4.32-3.29-7.45-5.48-10.83c-5.66-8.24-6.59-18.511-10.59-27.49
			c-1.71-3.7-4.86-6.41-7.53-9.391c-3.06-3.229-5.93-6.64-9.27-9.59c-3.261-2.899-7.57-4.029-11.601-5.399
			c-7.67-2.42-15.359-4.92-22.5-8.66c-7.52-4.19-12.85-11.12-18.96-16.99c-2.68-2.32-3.66-5.81-5.03-8.95
			c-3.239-7.699-6.47-15.52-7.8-23.83c-1.47-9.56-0.76-19.369,1.46-28.76c1.36-5.609,2.79-11.33,5.79-16.319
			c8.21-14.261,20.7-25.341,33.13-35.841c5.65-4,10.69-8.93,16.971-11.989c2.22-1.021,3.81-2.931,5.38-4.74
			c-2.271-4.17-4.61-8.311-7.311-12.22c-1.43,1.239-2.859,2.489-4.27,3.76c-1.811-0.21-3.61-0.431-5.4-0.66
			c2.53-2.72,5.13-5.37,7.8-7.95c-1.85-4.13-3.59-8.32-4.659-12.729c5.319,0.56,7.22,5.949,9.8,9.79c2.97-0.96,5.96-1.881,9-2.61
			c-1.83,2.51-4.03,4.71-6.42,6.689c2.2,4.37,4.479,8.7,6.97,12.9c4.15-2.68,8.39-5.2,12.62-7.74
			c10.11-6.08,18.67-14.63,29.62-19.319C481.44,159.47,488.1,154.77,495.75,152.25z M481.15,167.68
			c-10.12,5.33-19.64,11.77-28.67,18.779c1.98,6.851,5.52,13.08,9.39,19.021c6.87,10.66,13.301,21.6,19.641,32.59
			c4.029,7.35,11.189,12.45,14.77,20.1c4.641,9.92,12.16,18.42,15.01,29.181c8.41-5.08,16.19-11.16,24.91-15.721
			c9.771-5.159,18.49-12.13,28.49-16.89c-1.1-11.39-2.4-22.8-1.939-34.26c-0.671-8.82,0.46-18.11-3.29-26.4
			c-3.391-8.53-6.341-18.3-14.44-23.6c-8.16-5.55-16.88-11.54-27.04-12.2C505.09,157.98,492.92,163.01,481.15,167.68z
			 M437.199,196.73c-4.42,3.729-9.67,6.22-14.5,9.35c2.73,3.5,6.37,6.36,8.28,10.46c5.48,11.63,13.61,21.67,20.54,32.42
			c1.01,1.66,2.65,2.75,4.24,3.82c0.939-2.74,1.83-5.5,2.74-8.25c-0.9-0.26-2.7-0.78-3.601-1.04c5.67-4.66,13.25-5.47,20.32-4.79
			c-2.54-6.52-7.271-11.79-10.4-17.99c-3.27-6.239-7.899-11.63-11.24-17.83c-2.069-3.869-4.88-7.25-7.67-10.609
			C442.8,193.29,439.699,194.56,437.199,196.73z M415.43,210.89c-8.86,6.699-16.48,14.85-24.5,22.51
			c-4.59,4.26-7.68,9.77-11.16,14.91c-4.74,7.02-5.51,15.68-6.97,23.79c-1.86,10.62,0.34,21.51,4.14,31.46
			c2.42,6.22,5.01,12.52,9.311,17.71c4.859,5.92,10.97,10.95,18.05,13.96c10.09,4.39,20.62,7.75,30.479,12.68
			c7.73-7.16,16.28-13.38,23.91-20.65c4.01-3.8,8.6-6.89,12.811-10.449c4.67-4.03,9.989-7.521,13.27-12.91
			c-1.5-0.09-2.98-0.17-4.47-0.24c-5.101-8.83-10.391-17.66-17.41-25.13c-4.79-5.08-6.04-12.24-10.09-17.78
			c-3.33-4.739-5.5-10.26-9.58-14.45c-6.83-7.18-11.021-16.31-17.021-24.119c-2.22-2.771-3.489-6.091-4.859-9.32
			C420.32,210.9,417.35,208.97,415.43,210.89z M467.21,242.72c-1.841,0.34-3.87,0.409-5.46,1.449c-2.961,4.12-3.82,9.4-3.551,14.37
			c0.25,3.13,0.431,6.601,2.67,9.04c2.99,3.51,4.21,8.34,8.011,11.181c2.46,1.89,4.189,4.8,7.14,6
			c7.97,1.79,16.92-3.46,19.22-11.311c0.83-4.12-2.02-7.83-2.189-11.899c-0.29-7.33-6.511-12.261-12.021-16.11
			C477.09,242.45,471.94,242.01,467.21,242.72z M551.079,269.62c-4.859,2.851-9.909,5.37-14.649,8.41
			c-12.71,8.65-26.141,16.24-38.47,25.45c-2.7,2.08-6.011,3.18-8.591,5.43c-5.39,4.64-11.64,8.16-16.909,12.95
			c-5.841,5.229-11.771,10.36-18.051,15.05c-5.46,4.04-10.439,8.73-16.279,12.25c0.43,1.24,0.859,2.49,1.279,3.75
			c4.891,3.521,6.301,9.96,10.21,14.41c2.98-2.04,5.761-4.36,8.24-6.98c6.72-7.1,15.4-11.869,22.44-18.609
			c18.67-15.33,38.14-29.811,59.06-41.94c8.891-6.17,18.88-10.41,28.21-15.83c3.431-2.39,8.021-1.37,11.391-4
			c-3.03-6.609-6.601-12.97-10.32-19.22C563.079,264.27,556.71,266.22,551.079,269.62z M660.34,355.85
			c-1.66,0.68-3.42,1.27-4.78,2.47c0.63,2.77,1.94,5.31,3.19,7.84c3.729-1.27,7.3-3.09,11.199-3.83c2.561,0.21,4.971,1.2,7.41,1.99
			c-5.77,13.19-14.97,24.49-21.05,37.51c-7.34,12.891-12.021,27.04-18.49,40.351c-4.77,9.729-9.72,19.42-13.13,29.729
			c-1.6,5.03-4.9,9.32-6.17,14.48c-4.34,15.65-11.77,30.25-15.92,45.97c-2.41,9.29-6.23,18.12-9.14,27.25
			c-2.141,6.4-2.98,13.13-4.73,19.641c-3.43,13.119-7.3,26.119-11.16,39.119c-1.689,6.641-2.489,13.471-4.41,20.061
			c-4.47,17.49-7.17,35.36-10.17,53.14c-1.01,5.971-3.3,11.67-3.739,17.75c-0.341,4.8-2.41,9.26-2.82,14.05
			c-0.95,8.24-1.88,16.48-3.03,24.69c-1.21,9.22-4.02,18.14-5.229,27.36c2.31-0.73,5.18-0.971,6.46-3.351
			c4.91-7.34,11.739-13.21,16.16-20.899c4.529-7.771,10.25-14.88,13.67-23.261c1.58-4.08,4.819-7.119,7.55-10.42
			c16.58-19.199,28.09-41.97,42.08-62.979c9.12-13.271,18.16-26.61,26.49-40.4c4.239-6.819,7.829-14.02,12.56-20.53
			c3.55-4.819,5.81-10.489,9.72-15.06c5.69-6.53,9.82-14.19,14.851-21.21c10.76-17.15,23.649-32.811,36.55-48.36
			c9.39-11.01,20.38-20.479,31.21-30.02c4.819-4.43,9.62-10,16.56-10.71c5.94,0.24,11.271,3.27,16.75,5.29
			c-5.99-15.26-15.229-28.9-24.29-42.46c-8.08-13.841-17.79-26.671-28.239-38.79c-3.771-4.229-7.19-8.801-11.45-12.561
			c-7.011-6.32-15.15-11.43-21.141-18.83c-2.149-2.689-4.92-4.75-7.76-6.649c-1.49,0.09-2.97,0.18-4.43,0.27
			c0.75-0.42,2.26-1.27,3.021-1.7c-3.029-2.46-6.279-5.649-10.51-5.22C682.47,348.81,671.13,351.69,660.34,355.85z M605.23,466.711
			c-4.22,2.869-8.78,5.17-13.229,7.649c0.67,5.04,1.5,10.07,3.109,14.9c2.17,6.46,3.11,13.239,4.96,19.79
			c5.28-5.681,7.271-13.32,10.311-20.25c2.02-4.69,3.75-9.511,5.199-14.41c1.74-6.29,5.53-11.97,5.811-18.65
			C615.449,458.54,610.659,463.12,605.23,466.711z M775.86,472.91c-1.9,7.87-8.27,13.221-13.82,18.601
			c-9.789,10.609-19.949,20.93-28.729,32.42c-4.65,5.35-9.2,10.81-13.29,16.609c-4.8,6.83-10.9,12.71-15,20.03
			c-4.32,7.601-9.6,14.62-13.42,22.5c-5.7,11.9-15.88,21.21-20.13,33.87c7.51-2.9,14.41-7.229,22.109-9.7
			c-5.939,5.37-13.42,8.5-20.05,12.86c-6.66,4.2-11.52,10.56-16.26,16.72c-18.42,25.53-34.36,52.74-52.53,78.45
			c-3.35,4.85-5.78,10.24-8.899,15.22c-15.141,23.15-33.19,44.17-49.48,66.48c-11.02,12.89-22.18,25.75-34.85,37.08
			c-2.03,1.609-1.721,4.489-2.4,6.76c5.73-2.641,11.34-6.63,17.97-6.03c6.44,0.97,12.57,3.36,18.94,4.68
			c7.8,1.561,14.439,6.261,22.01,8.54c-0.82,1.851-1.649,3.7-2.45,5.58c0.23,2.391,0.851,4.96-0.239,7.25
			c-1.83,3.96-5.69,6.73-9.761,8.04c-3.85,0.351-7.739,0-11.569,0.54c0.08,1.49,0.189,2.99,0.31,4.5c3.851,1,8.2,1.72,10.32,5.561
			c-1.75,2.279-2.92,5.76-6.11,6.3c-9.08,1.91-18.43,0.95-27.6,1.84c-2.3,0.1-4.05,1.729-5.83,2.979
			c-4.41,3.431-9.07,6.601-14.26,8.73c-4.58,1.9-9.631,1.9-14.49,2.32c-2.8,7.13-4.21,15.1-9.13,21.18
			c-3.351,2.57-7.58,3.59-11.24,5.6c-11.11,6.29-24.01,7.79-36.21,10.811c-23.61,5-47.82,0.42-70.64-6.101
			c-8.17-2.119-15.75-6.189-24.181-7.27c-1.38-1.31-2.949-2.42-4.819-2.82c-9.99-2.84-19.75-6.89-30.19-7.739
			c-16.97-1.421-33.899-5.78-51.01-3.771c-5.53,1.89-9.71,6.33-14.41,9.65c-5.939,4.81-13,8.06-18.62,13.27
			c-1.55,1.47-3.46,2.46-5.42,3.271c2.87-5.881,8.59-9.32,13.37-13.44c5.37-4.66,11.16-8.8,16.41-13.58
			c2.88-2.75,7.04-2.93,10.77-3.34c-0.01-0.65-0.01-1.96-0.02-2.61c16.12,1.49,32.3,2.44,48.3,4.9c0.4-0.66,0.8-1.311,1.2-1.95
			c3.66,1.16,6.939,3.25,10.62,4.37c8.439,2.69,17.1,4.56,25.79,6.24c7.18,1.45,14.59,2.04,21.479,4.71
			c9.57,3.04,19.28,6.04,29.36,6.81c6.99,1.061,14.09-0.25,21.069,0.891c8.381,1.359,16.9,0.33,25.261-0.67
			c9.729-1.511,18.939-5.5,28.79-6.311c2.18-0.33,4.84-0.06,6.35-2.02c4.13-4.57,6.8-10.23,9-15.92c-1.12-0.53-2.229-1.04-3.34-1.54
			c1.39-1.19,3.45-1.99,3.85-3.971c2.21-7.21,1.431-15.38-2.56-21.84c-2.75-4.89-7.66-7.88-11.601-11.689
			c-4.659-1.11-8.529,1.899-12.569,3.62c-7.48,3.409-15.53,5.25-23.271,7.96c-10.979,3.739-22.35,6.229-33.79,8.079
			c-5.39,0.08-10.739-1.289-15.77-3.119c-16.271-7.12-32.271-15.03-46.97-25.051c-6.04-4.199-12.25-8.31-17.32-13.689
			c-4.26-4.44-8.09-9.271-11.97-14.04c-4.17-5.12-9.22-9.39-13.74-14.17c-3-3.23-7.01-5.2-10.88-7.17
			c-10.43-5.141-21.65-8.54-31.76-14.36c-0.061-0.63-0.181-1.899-0.25-2.53c-2.21-0.699-4.58-1.39-5.86-3.5
			c6.42-1.04,12.67,1.021,18.771,2.75c-0.32-6.77,0.119-13.55,1.34-20.21c-1.98-0.119-3.95-0.199-5.931-0.319
			c0.341-1.641,0.7-3.261,1.061-4.87c4.31-1.08,8.66-2.05,12.939-3.28c8.53-1.95,13.771-10.16,17.011-17.68
			c3.199-11.82,3.47-24.811-0.98-36.351c-3.12-8.34-9.85-14.84-12.3-23.479c-1.26-4.62-3.35-8.97-6.21-12.8
			c-4,2.37-7.92,5-10.85,8.67c-0.28-1.561-0.561-3.11-0.851-4.641c4.78-5.09,10.601-9.479,13.83-15.79
			c2.64-6.21,2.7-14.27-2.09-19.46c-2.69-3.989-7.58-5.1-11.96-6.1c-6.17-1.29-11.771-4.51-18.03-5.4
			c-4.899-0.859-9.88-0.18-14.77,0.381c-11.24,1.38-22.46,4.02-32.681,9c-7.37,3.88-14.89,7.489-21.79,12.189
			c-6.06,3.42-10.359,9.061-14.27,14.66c-4.351,6.63-8.07,13.77-10.42,21.359c-3.471,15.65-1.57,32.11,3.35,47.25
			c3.47,10.66,11.16,19.141,16.17,29.03c1.521,3.061,3.13,6.24,3.181,9.75c0.359,8.78-2.181,17.33-2.79,26.05
			c-0.69,8.181,2.43,16.65,8.359,22.351c2.69,2.689,5.59,5.31,7.351,8.74c3.05,6.409,4.6,14.46,0.529,20.81
			c-0.83-4.28-1.47-8.58-2.46-12.82c-3.67,1.511-4.31,5.78-5.54,9.08c-1.21,4.65-4.029,8.7-5.04,13.42
			c-3.229,16.471-2.01,33.44,0.96,49.86c1.221,9.13,0.12,18.44,1.62,27.56c0.931,5.32,0.04,10.74,0.62,16.101
			c0.46,4.96,1.311,9.89,1.12,14.899c-0.18,19.19,1.47,38.79-3.26,57.59c-0.19-0.609-0.57-1.85-0.76-2.459
			c-1.38,0.279-2.761,0.569-4.13,0.869c-0.03-5.659-0.12-11.31-0.211-16.97c-0.25-8.64,0.391-17.35-1.029-25.92
			c-1.221-7.64-1.15-15.39-1.98-23.07c-1.029-10.569-2.2-21.12-3.38-31.68c-2.47-0.87-5.17-1.36-7.31-2.93
			c-3.221-3.681-5-8.34-7.78-12.33c-12.03-17.96-21.37-37.58-29.271-57.66c-3.92-11.21-7.38-22.57-10.979-33.88
			c-4.07-16.05-5.62-32.6-8.13-48.93c-2.59-7.61-2.101-15.711-1.891-23.601c0.41-9.63,1.601-19.25,4-28.59
			c2.171-8.18,7.301-15.08,11.931-22.01c3.8-5.681,9.27-9.97,15.1-13.41c0.08,0.65,0.22,1.94,0.29,2.58
			c-3.2,2.51-6.39,5.14-8.7,8.53c-1.71,2.33-2.819,5.489-5.97,6.22c-2.66,5.92-6.24,11.79-5.9,18.53
			c-2.26,11.21-2.56,22.659-2.789,34.06c0.449,16.09,1.6,32.43,6.829,47.78c1.721,4.51,0.181,9.51,1.94,14.05
			c3.56,10.27,5.6,21.05,9.81,31.09c4.44,9.22,8.69,18.54,13.33,27.66c6.83,11.28,13.221,22.82,20.101,34.07
			c1.09,1.729,2.649,3.08,4.16,4.449c-0.051-14.399-0.86-28.989,2.13-43.17c2.05-10.79,4.359-21.739,9.609-31.489
			c1.271-2.62,3.12-5.101,3.391-8.08c-2.811-3.23-7.23-4.95-9.17-8.94c-1.79-3.479-3.271-7.13-4.261-10.91
			c-1.779-7.859,0.24-15.87,1.92-23.56c1.58-7.33,1.62-15.43-2.029-22.17c-5.94-10.11-13.07-19.66-17.28-30.7
			c-4.33-10.43-4.81-21.83-5.74-32.93c-0.359-8.931,3.721-17.11,6.07-25.511c1.12-5.18,5.5-8.539,7.96-13
			c-10.64-7.8-21.97-14.83-34.34-19.529c-7.24-2.94-14.68-5.96-22.62-5.91c-4.59,7.12-4.04,16.26-8.93,23.229
			c-6.69,10.311-9.63,22.42-11.62,34.38c-6.641,21.49-8.72,43.98-10.681,66.28c-0.369,9.11-0.25,18.25-0.979,27.351
			c-0.771,9.949,1.76,19.739,2.05,29.659c0.18,9.391,2.9,18.58,2.41,28.011c0.33,15.66,1.74,31.29,1.99,46.96
			c1.13,13.29,0.81,26.66,2.06,39.95c0.92,22.039-2.8,43.939-2.26,65.979c0.25,9.35-1.35,18.59-2,27.9
			c-0.64,3.689-1.92,7.25-2.51,10.96c20.95,2.699,42.1,0.54,63.109,2.05c9.96,0.91,19.98,0.74,29.98,1.01
			c14.7,0.05,29.36,1.29,44.07,1.25c24,0.101,48.01-0.11,72.01-0.1c14.99-0.03,29.939,1.439,44.93,1.609
			c7.49-0.27,15.01-0.18,22.46,0.771c-0.53-10.74-2.14-21.48-1.13-32.24c0.21-8.27,1.47-16.479,1.39-24.76
			c-2.39-1.75-4.56-4.2-7.68-4.51c-6.69-1.24-13.33-2.74-19.95-4.28c-3.14-0.7-5.729-2.68-8.26-4.53
			c-9.24,1.58-18.73,1.6-27.75,4.34c-8.36,1.971-16.79,3.681-25.21,5.391c-4.1,0.979-8.33,0.02-12.15-1.551
			c-3.79-1.59-8.02-2.529-11.05-5.489c-1.89,0.09-3.78,0.31-5.67,0.18c-2.02-1.29-3.07-3.56-4.439-5.43
			c-1.58-0.16-3.15-0.311-4.721-0.44c0.261-3.13,0.561-6.24,0.88-9.35c14.141-11.17,29.36-20.87,44.521-30.58
			c2.1-1.25,3.62-3.19,4.91-5.23c-2.79,0.091-5.69-0.149-8.37,0.801c-10.46,4.68-18.95,13.43-30.37,16.01
			c-2.771,0.689-5.6,1.97-8.51,1.31c-4.48,0.03-3.91-5.45-5.061-8.46c2.17,1.21,4.011,2.91,4.92,5.28c2.91,0.62,6.24,1.75,8.9-0.2
			c9.07-5.58,18.55-10.58,26.84-17.33c1.24-1.109,2.771-1.81,4.47-1.45c9.011,0.61,18.101,0.62,27.03-0.92
			c-4.55,5.91-12,7.96-17.88,12.15c-10.84,7.32-22.41,13.45-33.35,20.61c-4.75,3.199-9.83,6.229-13.24,10.96
			c9.819,2.35,17.66-5.08,26.46-7.78c9.149-3.05,16.609-9.43,25.12-13.76c7.239-3.58,13.92-8.28,21.59-10.971
			c-1.47,2.83-2.59,6.24-5.5,7.95c-8.98,5.181-18.48,9.38-27.4,14.67c-6.29,2.95-12.939,5.181-18.689,9.2
			c-5.07,3.34-10.87,5.271-16.36,7.78c2.41,1.83,5.21,4.37,8.49,3.319c7.49-1.93,14.47-5.369,21.649-8.17
			c8.171-3.369,16.841-5.399,24.851-9.18c4.979-2.4,10.38-3.93,15.93-4.05c-0.689,1.55-0.45,4.05-2.5,4.55
			c-11.02,3.98-22.05,8-33.28,11.35c-6.39,1.94-12.359,5-18.71,7.03c0.221,0.75,0.671,2.24,0.9,2.99c3.98,0.15,8.03,0.3,11.94-0.64
			c10.26-2.311,20.47-4.9,30.85-6.69c8.56-1.71,17.1-3.9,25.89-4.03c2.25,2.431,4.57,5.061,7.811,6.17
			c10.76,3.79,22.35,3.44,33.59,3.761c-4.73,5.62-2.58,13.18-3.05,19.87c-0.53,9.34,0.18,18.67,0.55,28.01
			c0.359,5.85-0.9,11.62-0.931,17.47c9.11-0.17,18.21,0.56,27.32,0.479c14.311-0.43,28.62,0.511,42.93,0.311
			c9.67-0.88,19.4-0.26,29.091-0.87c2.739-0.069,4.939-1.87,7.22-3.149c4.27-2.65,9.3-3.74,13.49-6.53
			c4.04-2.71,8.25-5.17,12.649-7.25c7.78-3.59,15.11-8.21,23.42-10.53c19.38-9.11,38.24-19.31,57.471-28.76
			c7.739-3.931,15.75-7.351,23.27-11.71c7.85-4.55,16.32-8.021,23.76-13.28c3.99-2.97,9.12-3.74,13.091-6.74
			c15.729-10.899,32.409-21.57,43.59-37.479c5.54-8.141,11.319-16.12,16.58-24.46c3.64-5.881,9.01-10.45,12.31-16.561
			c7.55-10.7,13.75-22.26,21.26-32.99c4.391-6.439,7.311-13.729,11.7-20.17c4.57-6.68,7.49-14.31,12.03-21
			c3.02-4.55,5.91-9.21,7.96-14.29c1.7-0.63,3.41-1.25,5.13-1.85c-2.11,5.1-4.34,10.64-2.5,16.2c-5.18,9.81-11.2,19.13-17.01,28.57
			c-5.16,8.05-9.44,16.6-14.07,24.949c-7.35,12.681-16.22,24.381-24.29,36.591c-2.55,3.79-4.67,7.96-8.07,11.1
			c-4.079,3.7-6.84,8.51-10.229,12.78c-2.94,3.76-5.78,7.609-8.05,11.81c-2.23,4.38-6.71,6.771-10.3,9.87
			c-12.521,11.84-27.271,21.01-41.91,29.98c-9.62,5.39-18.72,11.699-28.84,16.17c-9.11,3.97-17.28,9.689-26.311,13.819
			c-9.18,4.681-18.59,8.891-28.229,12.55c-6.66,3.221-14.17,4.561-20.33,8.79c-3.51,2.4-7.55,3.811-11.391,5.561
			c-10.05,4.49-20.05,9.1-29.85,14.1c-1.64,0.53-2.26,1.97-2.48,3.57c14.57-1.67,29.23-0.601,43.86-1.01
			c13.37-0.38,26.68,1.38,40.05,1.12c26.67-0.07,53.34,0.93,80.021,0.479c22.979-0.67,45.97-0.35,68.96-0.58
			c23.29-0.2,46.66,1.48,69.9-0.729c13.35-0.79,26.72,0.149,40.079,0.229c14.021,0.11,28.04-0.36,42.07-0.08
			c7.99,0.351,15.98-0.58,23.97,0.101c11.641-0.44,23.29-0.87,34.95-0.65c3.75,0.22,7.28-1.09,10.78-2.23
			c3.39-1.159,6.99-0.229,10.45,0.08c1-28.31-1.71-56.55-2.07-84.84c-0.11-12.189-4.3-23.859-5.07-35.99
			c-2.38-21.069-4.72-42.159-8.18-63.079c-2.04-12.561-3.85-25.15-5.6-37.74c-4.88-23.37-8.79-46.94-14.24-70.181
			c-5.04-21.92-10.99-43.63-17.63-65.119c-3.561-14.301-8.42-28.221-13.08-42.181c-3.38-9.79-5.891-19.85-9.33-29.62
			c-6.01-18.39-11.78-36.92-19.5-54.689c-4.41-12.68-8.39-25.55-13.98-37.78c-6-12.45-10.369-25.68-17.479-37.58
			c-2.35-4.01-6.36-6.66-10.24-9.01C787.539,469.54,781.05,470.04,775.86,472.91z M573.07,484.49c-2,3.641-1.45,7.95-2.22,11.92
			c-1.24,7.65-2.61,15.311-2.82,23.09c-1.33,19.971-3.84,39.95-2.729,60.011c-0.54,14.12,0.71,28.21,0.6,42.33
			c1.3-0.41,2.94-0.601,3.09-2.28c4.63-13.57,7.511-27.65,11.391-41.44c5.409-17.8,10.979-35.55,16.39-53.35
			c-5.31-12.771-5.12-26.84-7.99-40.17c-2.06-4.65-5.689-8.41-8.149-12.85C577.829,475.82,575.35,480.11,573.07,484.49z
			 M517.789,840.35c-8.05,3.33-15.64,7.66-23.369,11.64c-6.881,3.83-14.471,6.62-20.25,12.15c2.6,4.74,7.949,7.83,9.01,13.38
			c1.63,6.68,4.09,13.13,5.689,19.83c11.011-1.74,22.21-5.71,29.841-14.21c4.159,0.27,8.329-0.01,12.47-0.45
			c6.25-0.7,12.439,0.67,18.64,1.19c0.141-1.61,0.3-3.21,0.46-4.79c-9.59-0.95-19.09-2.7-28.29-5.57
			c1.431-1.56,2.66-3.74,4.99-4.021c7.78-1.56,15.72-2.25,23.42-4.239c0.05-1.37,0.101-2.73,0.15-4.07
			c-9.19-0.87-18.41,1.521-27.55-0.1c4.05-3.851,9.92-2.591,14.97-2.83c7.26-0.181,14.85-0.42,21.479,3.09
			c0.75-1.79,1.391-3.62,2.051-5.44c-11.801-2.239-23.771-3.39-35.591-5.399c-2.38,0.08-2.7-2.641-3.71-4.181
			c4.181,0.801,8.391,1.53,12.641,1.92c8.22,0.641,15.939,4.28,24.27,4.131c0.21-1.48,0.42-2.94,0.641-4.4
			c-6.351-3.08-13.36-4.21-20.131-6C532.53,840.32,525.02,838.591,517.789,840.35z"/>
	</g>
	<path fill="#FFFFFF" d="M608.199,213.75c1.58-0.6,2.12-0.06,1.62,1.61C608.22,215.95,607.68,215.42,608.199,213.75z"/>
	<path fill="#FFFFFF" d="M472.19,360.53c1.24-0.7,2.49-1.39,3.74-2.07c4.07,3.54,9.1,6,14.62,5.79c-3.84,1.511-7.88,3.74-12.13,2.62
		C475.449,365.9,474.039,362.79,472.19,360.53z"/>
	<path fill="#FFFFFF" d="M498.84,362.48c7.489,5.38,10.89,14.399,17.41,20.71c3.42,3.14,6.819,7.3,11.84,7.47
		c7.989,1.061,15.64,3.75,23.199,6.43c0.141,0.69,0.421,2.061,0.561,2.75c-5.17-1.46-10.36-3.5-15.84-3.079
		c-4.01,0.109-8.19,1.239-12.05-0.381c-4.051-1.5-8.601-2.85-11.271-6.5C506.42,381.75,500.69,372.75,498.84,362.48z"/>
	<path fill="#FFFFFF" d="M548.119,378.8c4.62,3.431,8.83,7.79,14.631,9.15c0.369,2.23,0.75,4.64,2.619,6.17
		c6.971,6.891,13.73,14.97,23.511,17.79c8.43,2.84,17.81,1.521,25.88,5.62c0.51,1.25,1.029,2.5,1.569,3.76
		c-3.149-1.24-6.439-2.029-9.76-2.56l1.28,2.92c-4.45-1.92-8.98-4.03-13.89-4.34c-4.94-0.33-10.091,0.06-14.75-1.931
		c-6.45-2.409-10.521-8.31-16.11-12.029c-3.76-2.38-6.16-6.21-7.98-10.16C552.92,388.31,549.409,384.07,548.119,378.8z"/>
	<path fill="#FFFFFF" d="M466.67,392.47c8.069-3.141,15.81-8.2,24.81-7.78c0.05,1.01,0.12,2.02,0.21,3.03
		c-8.02,1.229-15.46,4.579-22.63,8.21C468.26,394.77,467.46,393.62,466.67,392.47z"/>
	<path fill="#FFFFFF" d="M475.909,405.37c7.07-2.08,14.96-5.12,22.051-1.39c-3.54,1.95-7.15,3.79-10.86,5.41
		C483.619,407.4,479.65,406.69,475.909,405.37z"/>
	<path fill="#FFFFFF" d="M547.539,417.96c1.23,3.001,2.131,6.19,1.9,9.471c-0.4,6.819,0.05,13.84-2.42,20.35
		c-2.64-2.95-4.5-6.859-3.45-10.88C545.02,430.61,546.65,424.36,547.539,417.96z"/>
	<path fill="#FFFFFF" d="M531.43,450.08c1.55-0.52,3.26,2.931,1.39,3.15C531.28,454.15,529.42,450.03,531.43,450.08z"/>
	<path fill="#FFFFFF" d="M513.49,458.65c0.53-1.52,0.96-3.07,1.29-4.64c1.9,1.069,3.811,2.13,5.72,3.189
		c-1.02,1.15-2.029,2.3-3.029,3.471C516.1,460.07,514.72,459.5,513.49,458.65z"/>
	<path fill="#FFFFFF" d="M181.06,466.65c4.07,1.92,8.32,3.85,11.44,7.2c3.5,3.77,5.91,8.39,8.06,13.03
		c2.57,5.119,1.94,11.26,0.4,16.6c-2.431,5.67-5.92,10.811-8.59,16.36c5.6,6.62,11.08,13.35,15.899,20.58
		c1.97,3,5.11,6.02,4.44,9.949c-1.09,6.721-6.88,11.181-9.33,17.271c-0.5,10.16,1.859,21.02-2.55,30.63
		c-3.07,5.09-6,10.71-11.261,13.88c-4.77,2.86-8.77,7.11-14.17,8.82c-3,1.02-5.989,2.1-8.87,3.4c0.301,4.659,0.721,9.31,1.07,13.97
		c-1.52,0.47-3.04,0.96-4.56,1.439c-1.061-3.359-2-6.8-2.101-10.34c-0.199-2.76,0.21-5.649-1.05-8.2c4.79-2.41,9.17-5.6,14.15-7.64
		c7.239-3.15,14.35-7.69,18.43-14.65c3.9-7.81,4.76-16.87,3.54-25.45c-0.74-4.949,2.33-9.59,1.39-14.539
		c-0.52-3.641-0.84-7.311-0.979-10.98c1.39,2.93,2.81,5.86,4.399,8.69c2.46-2.511,4.78-5.16,6.95-7.94
		c-2.13-4.01-4.99-7.54-8.1-10.82c-4.33-4.399-5.82-10.56-8.8-15.8c-5.04,7.05-11.061,13.33-17.37,19.25
		c2.14-6.109,4.71-12.33,9.52-16.859c4.42-4.25,6.36-10.25,7.97-16c2.011-7.99,2.051-16.471,0.211-24.49
		C189.27,477.48,184.77,472.211,181.06,466.65z"/>
	<path fill="#FFFFFF" d="M305.81,481.53c1.39-0.79,2.8-1.58,4.2-2.359c2.92,3.54,4.21,8.56,8.59,10.72
		c5.4,3.189,12.32,6.189,13.27,13.25c-7.3-2.93-13.1-8.37-19.319-13C309.56,487.93,307.52,484.77,305.81,481.53z"/>
	<path fill="#FFFFFF" d="M307.93,500.56c3.32,1.89,6.87,3.689,9.39,6.65c1.79,1.399-0.63,2.989-1.16,4.409
		C312.78,508.461,310,504.7,307.93,500.56z"/>
	<path fill="#FFFFFF" d="M165.77,530.19c4.76-4.03,6.91-10.17,11.33-14.51c-0.16,12.12-10.07,22.26-21.49,25
		C157.49,535.91,162.12,533.421,165.77,530.19z"/>
	<path fill="#FFFFFF" d="M149.11,557.43c0.301-4.75,3.971-8.17,7.141-11.3c-0.9,8.649-1.46,17.569-4.99,25.64
		c-0.99,2.43-3.21,3.96-5.2,5.53c-2.95-0.99-6.03-1.29-8.38,1.12c1.45-2.24,3.15-4.351,5.41-5.83
		C148.03,569.27,148.49,562.79,149.11,557.43z"/>
	<path fill="#FFFFFF" d="M110.42,567.841c4.18-9.521,18.149-12.391,25.93-5.62c2.66,2.77,2.891,6.87,3.59,10.45
		c-1.97-2.73-3.43-5.87-5.859-8.23c-3.19-2.35-7.32-2.62-11.07-3.37c-2.78,1.9-6.69,3.05-7.88,6.54c-1.22,3.76-2.98,7.99-1.19,11.87
		c2.811,7.15,8.54,12.53,13.82,17.89c2.44-0.04,4.88-0.06,7.32,0c-5.011,1.5-10.74,2.271-15.44-0.6
		c-5.83-2.68-7.689-9.28-10.189-14.64C107.28,577.57,108.2,572.19,110.42,567.841z"/>
	<path fill="#FFFFFF" d="M257.52,692.04c1.76-3.479,3.67-6.939,6.4-9.77c-0.021,4.43-1.4,8.72-3.72,12.47
		c-7.061,11.68-13.591,24.09-15.761,37.71c-1.51,10.19,4.25,19.91,2.61,30.101c-1.49,8.949-7.21,16.39-13.14,22.939
		c-4.721,5.18-10.511,10.021-12.511,17c-0.17-1.74-0.38-3.479-0.59-5.189c2.53-3.48,4.42-7.37,7.01-10.79
		c3.721-4.4,8.23-8.29,10.67-13.62c1.58-3.58,2.561-7.42,3.181-11.271c0.93-5.42-1.86-10.42-3.11-15.54
		c-1.41-5.63-3.439-11.46-2.25-17.319c1.7-8.641,6.23-16.41,11.46-23.391C250.99,700.91,255.05,697.02,257.52,692.04z"/>
	<path fill="#FFFFFF" d="M191.16,755.93c0.83-7.021,0.22-14.4,3.33-20.96c0.819,8.81,1.619,17.72,0.569,26.54
		c-0.39,4.35-3.649,7.55-6.58,10.46c-2.6,2.51-4.16,5.819-5.899,8.939c0.29-3.38,0.12-6.97,1.77-10.04
		C186.82,765.99,190.52,761.53,191.16,755.93z"/>
	<path fill="#FFFFFF" d="M215.96,776.5c2.97-3.26,1.52-9.699,6.54-10.93c-1.181,6.55-2.771,13.26-6.67,18.79
		c-5.48,7.9-9.13,17.36-8.92,27.07c0.34,4.7,0.67,9.76-2.04,13.899c-3.051,4.54-6.38,8.971-10.2,12.9
		c0.21-4.12,2.09-7.83,2.96-11.79c1.1-7.22-0.101-14.58,1.07-21.79c0.899-6.229,4.75-11.42,7.779-16.75
		C208.93,783.54,212.62,780.131,215.96,776.5z"/>
	<path fill="#FFFFFF" d="M84.18,998.37c1.42-0.449,1.88,0.03,1.38,1.42C84.14,1000.23,83.68,999.76,84.18,998.37z"/>
</g>
</svg>
