<?xml version="1.0" encoding="utf-8"?>
<!-- Generator: Adobe Illustrator 16.0.0, SVG Export Plug-In . SVG Version: 6.00 Build 0)  -->
<!DOCTYPE svg PUBLIC "-//W3C//DTD SVG 1.1//EN" "http://www.w3.org/Graphics/SVG/1.1/DTD/svg11.dtd">
<svg version="1.1" id="Layer_1" xmlns="http://www.w3.org/2000/svg" xmlns:xlink="http://www.w3.org/1999/xlink" x="0px" y="0px"
	 width="996px" height="1071px" viewBox="0 0 996 1071" enable-background="new 0 0 996 1071" xml:space="preserve">
<g>
	<path d="M437.97,33.05c10.45-0.44,20.72-2.62,31.1-3.72c14.17,0,28.37,0.5,42.48,1.91c15.97,2.7,31.78,6.72,46.78,12.89
		c9.6,3.4,19.37,6.7,28.06,12.12c7.69,5,16,9.06,23.17,14.83c4.2,3.47,8.92,6.23,13.11,9.73c12.01,9.68,21.8,21.71,31.53,33.59
		c9.55,12.07,17.94,25.24,23.33,39.71c2.44,6.59,6.89,12.34,8.31,19.31c4.17,17.94,7.83,36.41,5.98,54.9
		c-1.29,14.59-3.63,29.12-7.37,43.28c-0.73,3.35-0.97,6.86-2.55,9.96c-2.64,5.52-3.96,11.58-6.92,16.95
		c-2.19,3.78-4.85,7.27-7.39,10.82c-0.6-0.54-1.8-1.63-2.4-2.18c-0.78,0.87-1.56,1.75-2.33,2.62c2.54-7.46,4.17-15.21,7-22.57
		c10.27-29.33,12.41-61.03,9.26-91.79c-1.93-14.07-6.02-27.91-12.46-40.58c-2.03-4.04-3.77-8.21-5.47-12.4
		c-2-5-6.82-7.99-9.59-12.49c-4.81-7.45-10.26-14.46-15.79-21.4c-11.74-15.55-27.66-27.19-43.39-38.39
		c-5.98-4.39-12.95-7.09-19.4-10.66c-15.79-8.52-33.28-13.29-50.85-16.47c-6.36-1.22-12.83-1.86-19.15-3.32
		c-5.56-1.25-11.28-1.6-16.96-1.37c-7.32,0.31-14.71,0.01-21.95,1.35c-12.84,2.36-26.08,2.54-38.65,6.33
		c-8.57,2.53-17.49,3.92-25.79,7.31c-4.57,1.84-8.67,4.61-13.01,6.88c-5.35,2.84-10.71,5.74-15.46,9.52
		c-7.14,5.56-14.86,10.34-21.82,16.14c-9.45,8.2-17.69,17.66-26.45,26.56c-7.03,6.92-12.13,15.42-17.66,23.5
		c-5.89,8.34-11.13,17.11-15.77,26.2c-3.04,5.97-4.49,12.58-7.2,18.69c-4.76,10.32-6.93,21.58-8.79,32.72
		c-1.2,8.61-2.88,17.23-2.69,25.97c0.31,23.44,2.32,47.2,9.68,69.59c3.45,8.02,7.19,15.95,11.21,23.7
		c7.31,12.51,16.6,23.93,27.62,33.36c7.79,6.18,14.7,13.38,22.47,19.6c8.96,7.87,17.99,16.2,29.16,20.81
		c3.72,1.48,5.89,5.56,10.05,6.1c3.26,0.72,6.33,2.05,9.35,3.45c1.19,0.63,2.84,0.95,3.39,2.35c-5.58-0.97-11.23-1.97-16.32-4.58
		c-6.58-3.37-14.26-4.15-20.43-8.36c-9.87-6.78-20.9-12.03-29.48-20.56c-9.62-7.55-20.37-14.45-26.77-25.2
		c-2.92-5.27-8.48-8.35-11.39-13.61c-4.1-7.6-9.06-14.74-12.23-22.82c-6.73-12.65-9.43-26.89-11.63-40.91
		c-2.26-17.2-5.03-34.62-2.99-51.99c1.63-13.95,3.04-28.05,7.19-41.52c3.99-10.76,8.08-21.5,12.73-32
		c2.14-4.69,4.05-9.58,7.28-13.66c11.42-15.21,20.53-32.48,35.05-45.1c6.6-6.31,11.72-14.22,19.29-19.47
		c9.21-5.28,16.35-13.53,25.89-18.3c16.13-8.5,32.16-17.49,49.54-23.26C425.49,35.21,431.59,33.19,437.97,33.05z"/>
	<g>
		<path d="M495.75,152.25c4.89-1.66,10.11-1.76,15.23-1.79c9.6,0.02,19.41,1.58,28,6.05c2.17,1.09,3.8,2.93,5.5,4.62
			c3.93,4,8.59,7.35,11.75,12.07c1.99,3.02,4.21,5.9,6.28,8.87c2.26,3.22,2.87,7.17,3.88,10.88c2.98,11.56,5.99,23.46,4.69,35.5
			c-1.1,9.48-1.09,19.5,2.52,28.48c3.97,6.69,7.51,13.65,10.11,21.01c8.02,3.53,16.82,6.3,23,12.85
			c5.73,6.05,11.69,12.27,14.93,20.09c4.63,10.38,5.21,22.51,12.15,31.81c4.51,4.27,10.39,6.74,15.24,10.62
			c9.67-5.27,20.54-7.5,31.05-10.41c7.07-1.49,15.14-3.18,21.75,0.75c7.42,4.48,14.71,9.21,21.64,14.44
			c5.12,3.79,9.12,8.83,13.84,13.08c6.44,5.93,11.99,12.71,18.22,18.84c6.53,6.94,10.69,15.76,17.41,22.56
			c13.87,14.8,20.98,34.18,32.22,50.79c4.5,7.54,7.34,15.9,11.24,23.74c6.42,13.23,11.6,26.99,17.43,40.48
			c7.91,19.25,14.01,39.16,21.26,58.66c3.51,9.43,5.72,19.31,9.57,28.63c5.09,12.64,9.07,25.7,12.94,38.76
			c3.77,12.97,7.79,25.86,11.43,38.87c3.22,9.95,4.38,20.39,7.33,30.41c6.62,22.68,10.65,45.99,15.43,69.1
			c2.61,13.2,5.16,26.41,7.65,39.63c1.66,11.78,5.78,23.06,6.98,34.93c1.86,7.13,2.25,14.49,3.02,21.8
			c1.63,9.58,2.35,19.27,3.22,28.95c0.67,8.44,2.51,16.75,2.64,25.24c1.14,11.34,1.73,22.73,2.52,34.1
			c2.12,15.51,1.49,31.2,1.4,46.81c-0.7,4.04-2.31,7.99-1.27,12.17c-1,0.38-1.99,0.77-2.97,1.16c0.13,3.01,0.37,6.02,0.67,9.03
			c-1.96,0.84-3.9,1.69-5.83,2.57c0.03,1.56,0.07,3.14,0.12,4.73c-10.64,2.09-21.45,0.42-32.16,0.22
			c-10.75-0.37-21.52-1.07-32.27-0.51c-24.14,1.16-48.31,0.3-72.45,0.23c-12.67,0.48-25.34-0.15-38.01-0.29
			c-16.36-0.01-32.73,0.48-49.09,0.57c-12.64-0.23-25.29-0.36-37.94-0.28c-11.37-0.03-22.71,0.94-34.07,0.55
			c-25.63,1.52-51.29-0.34-76.94-0.06c-26.35,0.02-52.69-1.05-79.03-0.5c-8.97-0.12-17.95-0.11-26.92,0.19
			c-26.36,0.54-52.75-0.35-79.11,0.72c-7.34,0.33-14.66-0.68-21.99-0.38c-7.98-0.06-15.94,0.58-23.9,0.85
			c-7.04,0.28-14.03-0.89-21.06-0.86c-9-0.18-18,0.77-26.99,0.1c-16.64-0.98-33.33-0.07-49.98-1.1
			c-16.01,0.05-32.08,1.18-48.07-0.23c-11.64,0.99-23.33-0.7-34.99,0.46c-7.04,0.95-13.97-1.08-21-0.82
			c-9.69,0.2-19.36-0.7-29.04-0.37c-7.63,0.36-15.27,0.18-22.9,0.51c-4.14,0.25-8.05-1.36-12.12-1.76
			c-3.96-0.45-7.91-1.12-11.71-2.34c0.11-1.26,0.21-2.5,0.29-3.74c-1.04-2.14-2.7-4.21-2.54-6.72c0.21-7.46,2.8-14.57,3.71-21.93
			c1.7-12.34,3.09-24.72,4.29-37.11c0-14.36,1.69-28.68,1.36-43.05c-1.02-22.69-3.83-45.27-4.65-67.97
			c-0.27-6.34,0.04-12.71-0.77-19.02c-0.54-5-1.62-9.93-1.87-14.96c-0.4-10.95-2.07-21.79-2.53-32.73
			c-0.97-8.41,0.47-16.82,0.29-25.24c-1.22-11.87,0.32-23.79,1.42-35.62c1.32-11.28,3.4-22.51,7.01-33.3
			c2.84-8.18,3.5-16.98,6.92-24.99c2.57-6.79,6.55-12.9,9.66-19.43c3.43-6.81,3.47-14.85,7.51-21.4c1.98-3.73,5.34-6.45,9.1-8.26
			c0.16-0.43,0.47-1.3,0.63-1.73c-6.78-1.26-14.25-2.98-18.83-8.57c-4.04-6.14-3.75-14.15-7.88-20.2
			c-6.31-6.69-12.73-13.41-17.51-21.32c-4.81-8.94-6.21-19.23-6.8-29.23c-0.64-8.07,0.82-16.08,2-24.03
			c1.62-10.52,5.72-20.55,11.24-29.61c2.52-4.15,6.51-7.11,10.76-9.32c5.86-2.88,10.28-7.81,15.7-11.35
			c7.39-4.86,13.69-11.19,21.28-15.76c6.05-3.7,12.99-5.55,19.85-7.11c5.99-1.3,12.01-3.03,18.22-2.59
			c16.72,0.79,32.16,10.05,42.94,22.52c-6.67-1.88-11.7-7.02-18.15-9.37c-7.66-2.83-15.5-6.05-23.82-5.78
			c-14.86,0.25-28.86,6.12-41.97,12.6c-4.65,2.12-6.7,7.28-11.1,9.73c-4.74,2.89-9.1,6.55-14.44,8.33
			c-7.5,2.03-12.32,8.9-15.84,15.37c-6.65,13.01-8.22,27.89-8.02,42.3c0.54,7.18,1.22,14.57,4.21,21.22
			c1.63,3.89,2.67,8.22,6.12,10.99c0.55,4.82,4.1,8.41,6.41,12.45c2.43,4.18,6.52,7.2,8.32,11.76c2.42,5.24,5.05,10.4,6.87,15.91
			c4.23,1.85,8.51,4.38,13.31,4.02c6.64-0.12,12.77-3.36,17.68-7.62c3.86-3.4,8.45-5.83,13.26-7.56
			c-4.59,6.68-11.92,10.47-18.46,14.91c0.53,2.98,1.06,5.98,1.56,8.98c7.44,2.49,14.68,5.52,22.08,8.12
			c6.81,2.31,12.54,6.82,19.06,9.77c2.31,0.95,3.97,2.86,5.95,4.31c3.55-0.49,6.31-3.01,9.14-4.98
			c8.82-6.76,18.16-12.85,27.87-18.26c11.98-6.18,25.7-7.46,38.98-7.58c7.75-1.06,15.34,1.06,22.81,2.85
			c5.31,1.38,10.47,3.63,14.77,7.08c4.87,4.03,8.14,9.52,11.71,14.64c-1.15,5.99-3.46,11.63-5.72,17.25
			c0.12,2.35,1.78,4.42,2.67,6.59c2.99,5.46,3.74,11.8,6.66,17.29c1.99,3.91,4.91,7.25,6.92,11.16c2.75,5.27,4.55,10.97,5.98,16.72
			c1.41,5.4-0.05,11.01,0.95,16.47c1.03,5.12-0.55,10.22-2.15,15.04c-0.85,2.57-2.39,4.89-4.38,6.73
			c-6.5,6.12-13.76,11.48-21.74,15.51c-0.76,5.93-0.82,11.91-0.8,17.88c-1.66,0.71-3.32,1.43-4.96,2.18
			c5.82,4.31,13.2,5.48,19.24,9.39c7.69,4.72,15.01,10.09,21.54,16.34c4.3,4.06,7.93,8.76,12.14,12.91
			c10.39,10.57,20.51,21.94,33.75,29.04c15.66,8.79,32.79,15.04,50.5,18.11c14.89,2.15,29.14-3.8,43.19-7.77
			c6.85-1.62,13.43-4.95,20.64-4.46c12.77-10.05,27.98-17.2,38.55-29.85c11.33-11.76,23.08-23.13,33.91-35.37
			c5.21-5.96,9.92-12.36,13.88-19.21c-0.97-0.45-1.93-0.88-2.89-1.3c-1.88-13.83,0.06-27.76,0.81-41.6
			c0.4-9.1,2.55-17.98,4.14-26.91c1.16-6.94,1.25-14.03,3.05-20.85c2.59-9.96,2.98-20.36,5.98-30.22c1.12-3.52,1.42-7.22,1.26-10.89
			c-3.87,3.07-5.17,7.92-7.22,12.19c-1.82,3.99-5.77,6.22-8.99,8.94c-5.32,4.26-11.22,8.66-18.28,9.07
			c-6.45,0.21-13.24-0.14-19.02-3.3c-13.52-6.8-23.41-18.62-33.05-29.93c-7.84-9.13-15.77-18.2-23.23-27.65
			c-1.4-1.95-3.82-2.56-5.9-3.45c-0.49,11.43,2.44,22.65,2.3,34.07c0.92,13.64,0.18,27.31,0.51,40.96
			c-0.23,18.38,3.4,36.63,2.4,55.02c-1.21,14.39-2.47,28.87-6.07,42.91c-1.72,5.18-6.72,8.08-10.94,11.04
			c-2.28-1.08-4.58-2.13-6.88-3.14c-2.55-5.55-4.01-11.55-4.27-17.65c2.73,2.64,5,5.85,8.27,7.88c4.34,0.18,5.59-4.86,6.47-8.18
			c3.99-20.39,7.44-41.08,6.88-61.93c-0.12-14.1-2.62-28.04-3.06-42.13c-2.27-22.19-0.81-44.88-6.6-66.61
			c-1.91-7.5-6.87-13.66-10.9-20.11c-5.58-7.98-9.95-16.7-15.05-24.97c-4.61-7.77-9.5-15.4-13.35-23.58
			c-3.53-7.28-7.61-14.27-11.69-21.24c-1.36-2.16-1.96-4.66-2.48-7.12c-5.49-3.88-10.79-8.03-15.78-12.55
			c-8.58-7.9-18.47-14.17-27.56-21.45c-4.03-3.31-8.36-6.43-11.28-10.84c-0.71,0.03-2.15,0.09-2.86,0.12
			c1.44,10.19,9.26,17.63,16.59,24.1c7.77,7.17,15.94,13.97,23.04,21.82c7.17,10.38,11.07,22.55,16.73,33.75
			c-0.5,1.74-1.02,3.47-1.53,5.22c1.2,1.46,2.36,2.96,3.58,4.41c-1,0.58-1.99,1.18-2.96,1.79c-6.97-5.59-15.5-8.76-22.44-14.36
			c-2.68-2.11-5.35-4.38-8.63-5.48c-5.93-2.13-11.7-4.69-17.61-6.9c0.55,2.43,0.27,5.41,2.44,7.12c7.43,7.26,14.4,15,22.33,21.74
			c3.73,3.19,7.49,6.7,9.23,11.42c3.02,7.89,5.56,16.08,10.17,23.24c4.16,6.31,9.39,11.93,15.52,16.36
			c6.83,5.12,14.48,8.95,21.75,13.37c5.95,4.24,10.27,10.3,15.85,14.99c2.19,1.45,2.04,4.17,2.28,6.49c-1.17-0.01-2.33,0-3.49,0.04
			c-5.91-6.04-11.09-13.61-19.47-16.37c-0.14,4.55,0.15,9.15-0.62,13.68c-1.83,10.6-0.74,21.38-0.68,32.07
			c0.01,10.68,1.51,21.32,1.17,32.02c0.16,12.4,1.15,24.79,3.06,37.05c1.97,19.07,4.69,38.07,8.5,56.87
			c1.82,8.68,9.36,14.22,15.01,20.44c5.58,6.44,12.62,11.32,18.94,16.99c4.91,4.08,10.49,7.41,14.65,12.34
			c-2.03,0.55-4.03,1.29-6.13,1.46c-6.35-2.68-11.38-7.64-17.5-10.74c-6.1-2.98-10.21-8.52-14.95-13.15
			c-5.19-5.15-9.4-11.15-14-16.8c-1.15-1.5-2.46-2.96-2.96-4.82c-4.3-17.35-7.9-34.92-9.32-52.76c-1.65-19.25-2.75-38.56-3.13-57.87
			c-0.38-7.35-1.39-14.68-1-22.05c0.49-9.03-0.88-18.01-0.9-27.03c-0.12-8.34,1.63-16.73-0.02-25.01
			c-5.29-3.41-11.49-5.62-15.79-10.39c-3.87-4.22-8.08-8.18-11.3-12.94c-4.34-6.26-4.5-14.45-9.14-20.54
			c-3.02-3.81-5.85-7.76-8.16-12.03c-5.82-10.33-18.86-13.98-24.12-24.74c-1.47-3.57-3.74-7.3-3.1-11.28
			c0.31-2.49,2.9-3.06,4.81-3.9c5.92,3.97,12.51,6.77,19.2,9.14c8.53,2.79,14.72,10.01,23.36,12.6c-0.39-3.69-0.7-7.68-3.28-10.59
			c-3.47-4.01-4.32-9.35-5.9-14.23c-1.37-4.45-4.56-7.96-7.55-11.4c-5.63-6.41-12.14-12-19.13-16.87
			c-6.07-4.21-10.39-10.31-15.08-15.9c-2.43-2.69-2.47-6.52-3.1-9.89c-0.71-3.78-0.07-7.6,1.13-11.19
			c13.08,8.39,25.67,17.53,37.76,27.3c7.65,5.95,15.63,11.56,22.58,18.35c6.11,6.97,10.07,15.48,14.42,23.59
			c3.21,6.35,7.19,12.26,10.59,18.5c8.97,16.04,17.52,32.49,29.2,46.78c4.51,5.76,10.4,10.22,15.08,15.83
			c2.87,3.22,4.83,7.16,7.87,10.25c10.57,10.8,19.77,22.85,30.54,33.45c7.27,6.75,15.94,11.8,24.8,16.17
			c5.87,3.08,12.94,3.93,19.36,2.41c8.87-5.08,14.79-13.99,19.02-23.07c4.63-9.69,5.77-20.83,4.18-31.38
			c-1.83-12.96-0.29-26.04-0.68-39.06c-0.34-15.64,1.09-31.25,0.81-46.88c0.35-9.73,3.15-19.12,4.94-28.63
			c-1.69,0.5-3.36,1.01-5.03,1.54c-0.76,1.41-1.09,3.27-2.58,4.13c-2.05,1.14-4.5,0.85-6.75,1.09c-2.19,1.7-4.31,3.93-7.21,4.25
			c-2.3-1.06-3.97-3.02-5.77-4.72c-1.94,1.66-4.52,3.48-7.13,2.05c-4.19-2.4-5.28-7.49-6.14-11.85c-1.73,0.8-3.45,1.62-5.18,2.41
			c-2.58-4.67-4.24-9.92-3.88-15.31c0.38-4.3-0.9-8.43-2.14-12.49c5.02,1.55,8.85,6.18,9.24,11.44c0.17,3.89-0.25,7.78-0.35,11.68
			c5.85-0.25,6.14,7.2,11.07,8.95c0.36-0.64,1.09-1.91,1.45-2.55c4.81,1.07,10.03,0.66,14.24,3.65c3.36-5.56,10.38-4.4,15.88-4.35
			c-0.05-2-0.1-3.99-0.11-5.98c5.3-3.71,5.21-10.64,8.54-15.66c0.71-1.2,1.5-2.35,2.3-3.49c1.19-0.13,2.38-0.24,3.59-0.34
			c3.04-5.52,4.72-11.61,6.61-17.58c0.92-3.26,3.54-5.53,5.65-8.03c-1.4,6.09-1.71,13.13,2.85,18.03
			c6.26-1.09,12.54-2.96,17.68-6.84c7.36-5.49,15.32-10.52,20.96-17.92c8.46-10.09,12.4-22.87,19.01-34.08
			c4.77-8.37,9.49-16.8,13.28-25.67c-3.08-4.37-4.05-9.64-5.57-14.64c-0.47-2.43-2.84-3.45-4.74-4.55
			c-4.03-2.17-7.18-5.62-11.25-7.72c-4.24-2.36-9.54-3.36-12.46-7.57c-4.11-6.01-4.97-13.46-6.87-20.32
			c-1.42-5.93-4.18-11.4-7.04-16.74c-1.22,0.03-2.43,0.07-3.64,0.11c-1.11-3.95-4.45-6.55-6.64-9.86
			c-3.31-4.85-6.86-9.91-12.2-12.68c-4.25-2.05-8.95-2.83-13.41-4.24c-10.61,4.46-20.95,9.57-30.74,15.62
			c-4.93,2.97-9.47,6.54-14.45,9.43c-11.33,6.8-22.09,14.49-32.47,22.66c-7.5,5.1-14.36,11.03-21.57,16.51
			c-8.6,6.69-17.19,13.53-24.38,21.76c3.16,7.13,4.19,14.95,6.97,22.2c2.31,6.02,7.69,10.74,8.22,17.43
			c0.76,13.95,3.51,27.7,4.33,41.65c3.55-0.75,7.21-1.57,10.22-3.72c3.54-2.92,8.31-2.86,12.58-3.85c3.65,5.66,3.31,12.8,6.37,18.73
			c3.33-0.47,6.66-1.09,9.82-2.29c0.61,0.4,1.22,0.83,1.83,1.26c-2.52,1.29-4.87,3.14-7.72,3.6c-3.16,0.36-6.31-0.28-9.42-0.74
			c-1.58-4.9-3.19-9.79-5-14.6c-6.5,2.89-12.71,7.8-20.15,7.41c-3.54-2.59-3.85-7.65-4.76-11.64c-2.42-11.19-2.64-22.64-3.23-34.02
			c-0.01-4.32-3.29-7.45-5.48-10.83c-5.66-8.24-6.59-18.51-10.59-27.49c-1.71-3.7-4.86-6.41-7.53-9.39
			c-3.06-3.23-5.93-6.64-9.27-9.59c-3.26-2.9-7.57-4.03-11.6-5.4c-7.67-2.42-15.36-4.92-22.5-8.66
			c-7.52-4.19-12.85-11.12-18.96-16.99c-2.68-2.32-3.66-5.81-5.03-8.95c-3.24-7.7-6.47-15.52-7.8-23.83
			c-1.47-9.56-0.76-19.37,1.46-28.76c1.36-5.61,2.79-11.33,5.79-16.32c8.21-14.26,20.7-25.34,33.13-35.84
			c5.65-4,10.69-8.93,16.97-11.99c2.22-1.02,3.81-2.93,5.38-4.74c-2.27-4.17-4.61-8.31-7.31-12.22c-1.43,1.24-2.86,2.49-4.27,3.76
			c-1.81-0.21-3.61-0.43-5.4-0.66c2.53-2.72,5.13-5.37,7.8-7.95c-1.85-4.13-3.59-8.32-4.66-12.73c5.32,0.56,7.22,5.95,9.8,9.79
			c2.97-0.96,5.96-1.88,9-2.61c-1.83,2.51-4.03,4.71-6.42,6.69c2.2,4.37,4.48,8.7,6.97,12.9c4.15-2.68,8.39-5.2,12.62-7.74
			c10.11-6.08,18.67-14.63,29.62-19.32C481.44,159.47,488.1,154.77,495.75,152.25z M481.15,167.68
			c-10.12,5.33-19.64,11.77-28.67,18.78c1.98,6.85,5.52,13.08,9.39,19.02c6.87,10.66,13.3,21.6,19.64,32.59
			c4.03,7.35,11.19,12.45,14.77,20.1c4.64,9.92,12.16,18.42,15.01,29.18c8.41-5.08,16.19-11.16,24.91-15.72
			c9.77-5.16,18.49-12.13,28.49-16.89c-1.1-11.39-2.4-22.8-1.94-34.26c-0.67-8.82,0.46-18.11-3.29-26.4
			c-3.39-8.53-6.34-18.3-14.44-23.6c-8.16-5.55-16.88-11.54-27.04-12.2C505.09,157.98,492.92,163.01,481.15,167.68z M437.2,196.73
			c-4.42,3.73-9.67,6.22-14.5,9.35c2.73,3.5,6.37,6.36,8.28,10.46c5.48,11.63,13.61,21.67,20.54,32.42
			c1.01,1.66,2.65,2.75,4.24,3.82c0.94-2.74,1.83-5.5,2.74-8.25c-0.9-0.26-2.7-0.78-3.6-1.04c5.67-4.66,13.25-5.47,20.32-4.79
			c-2.54-6.52-7.27-11.79-10.4-17.99c-3.27-6.24-7.9-11.63-11.24-17.83c-2.07-3.87-4.88-7.25-7.67-10.61
			C442.8,193.29,439.7,194.56,437.2,196.73z M415.43,210.89c-8.86,6.7-16.48,14.85-24.5,22.51c-4.59,4.26-7.68,9.77-11.16,14.91
			c-4.74,7.02-5.51,15.68-6.97,23.79c-1.86,10.62,0.34,21.51,4.14,31.46c2.42,6.22,5.01,12.52,9.31,17.71
			c4.86,5.92,10.97,10.95,18.05,13.96c10.09,4.39,20.62,7.75,30.48,12.68c7.73-7.16,16.28-13.38,23.91-20.65
			c4.01-3.8,8.6-6.89,12.81-10.45c4.67-4.03,9.99-7.52,13.27-12.91c-1.5-0.09-2.98-0.17-4.47-0.24
			c-5.1-8.83-10.39-17.66-17.41-25.13c-4.79-5.08-6.04-12.24-10.09-17.78c-3.33-4.74-5.5-10.26-9.58-14.45
			c-6.83-7.18-11.02-16.31-17.02-24.12c-2.22-2.77-3.49-6.09-4.86-9.32C420.32,210.9,417.35,208.97,415.43,210.89z M467.21,242.72
			c-1.84,0.34-3.87,0.41-5.46,1.45c-2.96,4.12-3.82,9.4-3.55,14.37c0.25,3.13,0.43,6.6,2.67,9.04c2.99,3.51,4.21,8.34,8.01,11.18
			c2.46,1.89,4.19,4.8,7.14,6c7.97,1.79,16.92-3.46,19.22-11.31c0.83-4.12-2.02-7.83-2.19-11.9c-0.29-7.33-6.51-12.26-12.02-16.11
			C477.09,242.45,471.94,242.01,467.21,242.72z M551.08,269.62c-4.86,2.85-9.91,5.37-14.65,8.41
			c-12.71,8.65-26.14,16.24-38.47,25.45c-2.7,2.08-6.01,3.18-8.59,5.43c-5.39,4.64-11.64,8.16-16.91,12.95
			c-5.84,5.23-11.77,10.36-18.05,15.05c-5.46,4.04-10.44,8.73-16.28,12.25c0.43,1.24,0.86,2.49,1.28,3.75
			c4.89,3.52,6.3,9.96,10.21,14.41c2.98-2.04,5.76-4.36,8.24-6.98c6.72-7.1,15.4-11.87,22.44-18.61
			c18.67-15.33,38.14-29.81,59.06-41.94c8.89-6.17,18.88-10.41,28.21-15.83c3.43-2.39,8.02-1.37,11.39-4
			c-3.03-6.61-6.6-12.97-10.32-19.22C563.08,264.27,556.71,266.22,551.08,269.62z M660.34,355.85c-1.66,0.68-3.42,1.27-4.78,2.47
			c0.63,2.77,1.94,5.31,3.19,7.84c3.73-1.27,7.3-3.09,11.2-3.83c2.56,0.21,4.97,1.2,7.41,1.99c-5.77,13.19-14.97,24.49-21.05,37.51
			c-7.34,12.89-12.02,27.04-18.49,40.35c-4.77,9.73-9.72,19.42-13.13,29.73c-1.6,5.03-4.9,9.32-6.17,14.48
			c-4.34,15.65-11.77,30.25-15.92,45.97c-2.41,9.29-6.23,18.12-9.14,27.25c-2.14,6.4-2.98,13.13-4.73,19.64
			c-3.43,13.12-7.3,26.12-11.16,39.12c-1.69,6.64-2.49,13.47-4.41,20.06c-4.47,17.49-7.17,35.36-10.17,53.14
			c-1.01,5.97-3.3,11.67-3.74,17.75c-0.34,4.8-2.41,9.26-2.82,14.05c-0.95,8.24-1.88,16.48-3.03,24.69
			c-1.21,9.22-4.02,18.14-5.23,27.36c2.31-0.73,5.18-0.97,6.46-3.35c4.91-7.34,11.74-13.21,16.16-20.9
			c4.53-7.77,10.25-14.88,13.67-23.26c1.58-4.08,4.82-7.12,7.55-10.42c16.58-19.2,28.09-41.97,42.08-62.98
			c9.12-13.27,18.16-26.61,26.49-40.4c4.24-6.82,7.83-14.02,12.56-20.53c3.55-4.82,5.81-10.49,9.72-15.06
			c5.69-6.53,9.82-14.19,14.85-21.21c10.76-17.15,23.65-32.81,36.55-48.36c9.39-11.01,20.38-20.48,31.21-30.02
			c4.82-4.43,9.62-10,16.56-10.71c5.94,0.24,11.27,3.27,16.75,5.29c-5.99-15.26-15.23-28.9-24.29-42.46
			c-8.08-13.84-17.79-26.67-28.24-38.79c-3.77-4.229-7.19-8.8-11.45-12.56c-7.01-6.32-15.15-11.43-21.14-18.83
			c-2.15-2.69-4.92-4.75-7.76-6.65c-1.49,0.09-2.97,0.18-4.43,0.27c0.75-0.42,2.26-1.27,3.021-1.7c-3.03-2.46-6.28-5.65-10.51-5.22
			C682.47,348.81,671.13,351.69,660.34,355.85z M605.23,466.71c-4.22,2.87-8.78,5.17-13.23,7.65c0.67,5.04,1.5,10.07,3.11,14.9
			c2.17,6.46,3.11,13.24,4.96,19.79c5.28-5.68,7.27-13.32,10.31-20.25c2.02-4.69,3.75-9.51,5.2-14.41
			c1.74-6.29,5.53-11.97,5.81-18.65C615.45,458.54,610.66,463.12,605.23,466.71z M775.86,472.91c-1.9,7.87-8.27,13.22-13.82,18.6
			c-9.79,10.61-19.95,20.93-28.73,32.42c-4.65,5.35-9.2,10.81-13.29,16.61c-4.8,6.83-10.9,12.71-15,20.03
			c-4.32,7.6-9.6,14.62-13.42,22.5c-5.7,11.9-15.88,21.21-20.13,33.87c7.51-2.9,14.41-7.23,22.11-9.7
			c-5.94,5.37-13.42,8.5-20.05,12.86c-6.66,4.2-11.52,10.56-16.26,16.72c-18.42,25.53-34.36,52.74-52.53,78.45
			c-3.35,4.85-5.78,10.24-8.9,15.22c-15.14,23.15-33.19,44.17-49.48,66.48c-11.02,12.89-22.18,25.75-34.85,37.08
			c-2.03,1.61-1.72,4.49-2.4,6.76c5.73-2.64,11.34-6.63,17.97-6.03c6.44,0.97,12.57,3.36,18.94,4.68c7.8,1.56,14.44,6.26,22.01,8.54
			c-0.82,1.85-1.65,3.7-2.45,5.58c0.23,2.39,0.85,4.96-0.24,7.25c-1.83,3.96-5.69,6.73-9.76,8.04c-3.85,0.35-7.74,0-11.57,0.54
			c0.08,1.49,0.19,2.99,0.31,4.5c3.85,1,8.2,1.72,10.32,5.56c-1.75,2.28-2.92,5.76-6.11,6.3c-9.08,1.91-18.43,0.95-27.6,1.84
			c-2.3,0.1-4.05,1.73-5.83,2.98c-4.41,3.43-9.07,6.6-14.26,8.73c-4.58,1.9-9.63,1.9-14.49,2.32c-2.8,7.13-4.21,15.1-9.13,21.18
			c-3.35,2.57-7.58,3.59-11.24,5.6c-11.11,6.29-24.01,7.79-36.21,10.81c-23.61,5-47.82,0.42-70.64-6.1
			c-8.17-2.12-15.75-6.19-24.18-7.27c-1.38-1.31-2.95-2.42-4.82-2.82c-9.99-2.84-19.75-6.89-30.19-7.74
			c-16.97-1.42-33.9-5.78-51.01-3.77c-5.53,1.89-9.71,6.33-14.41,9.65c-5.94,4.81-13,8.06-18.62,13.27
			c-1.55,1.47-3.46,2.46-5.42,3.27c2.87-5.88,8.59-9.32,13.37-13.44c5.37-4.66,11.16-8.8,16.41-13.58
			c2.88-2.75,7.04-2.93,10.77-3.34c-0.01-0.65-0.01-1.96-0.02-2.61c16.12,1.49,32.3,2.44,48.3,4.9c0.4-0.66,0.8-1.31,1.2-1.95
			c3.66,1.16,6.94,3.25,10.62,4.37c8.44,2.69,17.1,4.56,25.79,6.24c7.18,1.45,14.59,2.04,21.48,4.71
			c9.57,3.04,19.28,6.04,29.36,6.81c6.99,1.06,14.09-0.25,21.07,0.89c8.38,1.36,16.9,0.33,25.26-0.67
			c9.73-1.51,18.94-5.5,28.79-6.31c2.18-0.33,4.84-0.06,6.35-2.02c4.13-4.57,6.8-10.23,9-15.92c-1.12-0.53-2.23-1.04-3.34-1.54
			c1.39-1.19,3.45-1.99,3.85-3.97c2.21-7.21,1.43-15.38-2.56-21.84c-2.75-4.89-7.66-7.88-11.6-11.69c-4.66-1.11-8.53,1.9-12.57,3.62
			c-7.48,3.41-15.53,5.25-23.27,7.96c-10.98,3.74-22.35,6.23-33.79,8.08c-5.39,0.08-10.74-1.29-15.77-3.12
			c-16.27-7.12-32.27-15.03-46.97-25.05c-6.04-4.2-12.25-8.31-17.32-13.69c-4.26-4.44-8.09-9.27-11.97-14.04
			c-4.17-5.12-9.22-9.39-13.74-14.17c-3-3.23-7.01-5.2-10.88-7.17c-10.43-5.14-21.65-8.54-31.76-14.36
			c-0.06-0.63-0.18-1.9-0.25-2.53c-2.21-0.7-4.58-1.39-5.86-3.5c6.42-1.04,12.67,1.02,18.77,2.75c-0.32-6.77,0.12-13.55,1.34-20.21
			c-1.98-0.12-3.95-0.2-5.93-0.32c0.34-1.64,0.7-3.26,1.06-4.87c4.31-1.08,8.66-2.05,12.94-3.28c8.53-1.95,13.77-10.16,17.01-17.68
			c3.2-11.82,3.47-24.81-0.98-36.35c-3.12-8.34-9.85-14.84-12.3-23.48c-1.26-4.62-3.35-8.97-6.21-12.8c-4,2.37-7.92,5-10.85,8.67
			c-0.28-1.56-0.56-3.11-0.85-4.64c4.78-5.09,10.6-9.48,13.83-15.79c2.64-6.21,2.7-14.27-2.09-19.46c-2.69-3.99-7.58-5.1-11.96-6.1
			c-6.17-1.29-11.77-4.51-18.03-5.4c-4.9-0.86-9.88-0.18-14.77,0.38c-11.24,1.38-22.46,4.02-32.68,9
			c-7.37,3.88-14.89,7.49-21.79,12.19c-6.06,3.42-10.36,9.06-14.27,14.66c-4.35,6.63-8.07,13.77-10.42,21.36
			c-3.47,15.65-1.57,32.11,3.35,47.25c3.47,10.66,11.16,19.14,16.17,29.03c1.52,3.06,3.13,6.24,3.18,9.75
			c0.36,8.78-2.18,17.33-2.79,26.05c-0.69,8.18,2.43,16.65,8.36,22.35c2.69,2.69,5.59,5.31,7.35,8.74
			c3.05,6.41,4.6,14.46,0.53,20.81c-0.83-4.28-1.47-8.58-2.46-12.82c-3.67,1.51-4.31,5.78-5.54,9.08c-1.21,4.65-4.03,8.7-5.04,13.42
			c-3.23,16.47-2.01,33.44,0.96,49.86c1.22,9.13,0.12,18.44,1.62,27.56c0.93,5.32,0.04,10.74,0.62,16.1
			c0.46,4.96,1.31,9.89,1.12,14.9c-0.18,19.19,1.47,38.79-3.26,57.59c-0.19-0.61-0.57-1.85-0.76-2.46
			c-1.38,0.28-2.76,0.57-4.13,0.87c-0.03-5.66-0.12-11.31-0.21-16.97c-0.25-8.64,0.39-17.35-1.03-25.92
			c-1.22-7.64-1.15-15.39-1.98-23.07c-1.03-10.57-2.2-21.12-3.38-31.68c-2.47-0.87-5.17-1.36-7.31-2.93
			c-3.22-3.68-5-8.34-7.78-12.33c-12.03-17.96-21.37-37.58-29.27-57.66c-3.92-11.21-7.38-22.57-10.98-33.88
			c-4.07-16.05-5.62-32.6-8.13-48.93c-2.59-7.61-2.1-15.71-1.89-23.6c0.41-9.63,1.6-19.25,4-28.59c2.17-8.18,7.3-15.08,11.93-22.01
			c3.8-5.68,9.27-9.97,15.1-13.41c0.08,0.65,0.22,1.94,0.29,2.58c-3.2,2.51-6.39,5.14-8.7,8.53c-1.71,2.33-2.82,5.49-5.97,6.22
			c-2.66,5.92-6.24,11.79-5.9,18.53c-2.26,11.21-2.56,22.66-2.79,34.06c0.45,16.09,1.6,32.43,6.83,47.78
			c1.72,4.51,0.18,9.51,1.94,14.05c3.56,10.27,5.6,21.05,9.81,31.09c4.44,9.22,8.69,18.54,13.33,27.66
			c6.83,11.28,13.22,22.82,20.1,34.07c1.09,1.73,2.65,3.08,4.16,4.45c-0.05-14.4-0.86-28.99,2.13-43.17
			c2.05-10.79,4.36-21.74,9.61-31.49c1.27-2.62,3.12-5.1,3.39-8.08c-2.81-3.23-7.23-4.95-9.17-8.94c-1.79-3.48-3.27-7.13-4.26-10.91
			c-1.78-7.86,0.24-15.87,1.92-23.56c1.58-7.33,1.62-15.43-2.03-22.17c-5.94-10.11-13.07-19.66-17.28-30.7
			c-4.33-10.43-4.81-21.83-5.74-32.93c-0.36-8.93,3.72-17.11,6.07-25.51c1.12-5.18,5.5-8.54,7.96-13
			c-10.64-7.8-21.97-14.83-34.34-19.53c-7.24-2.94-14.68-5.96-22.62-5.91c-4.59,7.12-4.04,16.26-8.93,23.23
			c-6.69,10.31-9.63,22.42-11.62,34.38c-6.64,21.49-8.72,43.98-10.68,66.28c-0.37,9.11-0.25,18.25-0.98,27.35
			c-0.77,9.95,1.76,19.74,2.05,29.66c0.18,9.39,2.9,18.58,2.41,28.01c0.33,15.66,1.74,31.29,1.99,46.96
			c1.13,13.29,0.81,26.66,2.06,39.95c0.92,22.04-2.8,43.94-2.26,65.98c0.25,9.35-1.35,18.59-2,27.9c-0.64,3.69-1.92,7.25-2.51,10.96
			c20.95,2.7,42.1,0.54,63.11,2.05c9.96,0.91,19.98,0.74,29.98,1.01c14.7,0.05,29.36,1.29,44.07,1.25c24,0.1,48.01-0.11,72.01-0.1
			c14.99-0.03,29.94,1.44,44.93,1.61c7.49-0.27,15.01-0.18,22.46,0.77c-0.53-10.74-2.14-21.48-1.13-32.24
			c0.21-8.27,1.47-16.48,1.39-24.76c-2.39-1.75-4.56-4.2-7.68-4.51c-6.69-1.24-13.33-2.74-19.95-4.28c-3.14-0.7-5.73-2.68-8.26-4.53
			c-9.24,1.58-18.73,1.6-27.75,4.34c-8.36,1.97-16.79,3.68-25.21,5.39c-4.1,0.98-8.33,0.02-12.15-1.55
			c-3.79-1.59-8.02-2.53-11.05-5.49c-1.89,0.09-3.78,0.31-5.67,0.18c-2.02-1.29-3.07-3.56-4.44-5.43c-1.58-0.16-3.15-0.31-4.72-0.44
			c0.26-3.13,0.56-6.24,0.88-9.35c14.14-11.17,29.36-20.87,44.52-30.58c2.1-1.25,3.62-3.19,4.91-5.23c-2.79,0.09-5.69-0.15-8.37,0.8
			c-10.46,4.68-18.95,13.43-30.37,16.01c-2.77,0.69-5.6,1.97-8.51,1.31c-4.48,0.03-3.91-5.45-5.06-8.46
			c2.17,1.21,4.01,2.91,4.92,5.28c2.91,0.62,6.24,1.75,8.9-0.2c9.07-5.58,18.55-10.58,26.84-17.33c1.24-1.11,2.77-1.81,4.47-1.45
			c9.01,0.61,18.1,0.62,27.03-0.92c-4.55,5.91-12,7.96-17.88,12.15c-10.84,7.32-22.41,13.45-33.35,20.61
			c-4.75,3.2-9.83,6.23-13.24,10.96c9.82,2.35,17.66-5.08,26.46-7.78c9.15-3.05,16.61-9.43,25.12-13.76
			c7.24-3.58,13.92-8.28,21.59-10.97c-1.47,2.83-2.59,6.24-5.5,7.95c-8.98,5.18-18.48,9.38-27.4,14.67
			c-6.29,2.95-12.94,5.18-18.69,9.2c-5.07,3.34-10.87,5.27-16.36,7.78c2.41,1.83,5.21,4.37,8.49,3.32
			c7.49-1.93,14.47-5.37,21.65-8.17c8.17-3.37,16.84-5.4,24.85-9.18c4.98-2.4,10.38-3.93,15.93-4.05c-0.69,1.55-0.45,4.05-2.5,4.55
			c-11.02,3.98-22.05,8-33.28,11.35c-6.39,1.94-12.36,5-18.71,7.03c0.22,0.75,0.67,2.24,0.9,2.99c3.98,0.15,8.03,0.3,11.94-0.64
			c10.26-2.31,20.47-4.9,30.85-6.69c8.56-1.71,17.1-3.9,25.89-4.03c2.25,2.43,4.57,5.06,7.81,6.17c10.76,3.79,22.35,3.44,33.59,3.76
			c-4.73,5.62-2.58,13.18-3.05,19.87c-0.53,9.34,0.18,18.67,0.55,28.01c0.36,5.85-0.9,11.62-0.93,17.47
			c9.11-0.17,18.21,0.56,27.32,0.48c14.31-0.43,28.62,0.51,42.93,0.31c9.67-0.88,19.4-0.26,29.09-0.87
			c2.74-0.07,4.94-1.87,7.22-3.15c4.27-2.65,9.3-3.74,13.49-6.53c4.04-2.71,8.25-5.17,12.65-7.25c7.78-3.59,15.11-8.21,23.42-10.53
			c19.38-9.11,38.24-19.31,57.47-28.76c7.74-3.93,15.75-7.35,23.27-11.71c7.85-4.55,16.32-8.02,23.76-13.28
			c3.99-2.97,9.12-3.74,13.09-6.74c15.73-10.9,32.41-21.57,43.59-37.48c5.54-8.14,11.32-16.12,16.58-24.46
			c3.64-5.88,9.01-10.45,12.31-16.56c7.55-10.7,13.75-22.26,21.26-32.99c4.39-6.44,7.31-13.73,11.7-20.17
			c4.57-6.68,7.49-14.31,12.03-21c3.02-4.55,5.91-9.21,7.96-14.29c1.7-0.63,3.41-1.25,5.13-1.85c-2.11,5.1-4.34,10.64-2.5,16.2
			c-5.18,9.81-11.2,19.13-17.01,28.57c-5.16,8.05-9.44,16.6-14.07,24.95c-7.35,12.68-16.22,24.38-24.29,36.59
			c-2.55,3.79-4.67,7.96-8.07,11.1c-4.08,3.7-6.84,8.51-10.23,12.78c-2.94,3.76-5.78,7.61-8.05,11.81
			c-2.23,4.38-6.71,6.77-10.3,9.87c-12.52,11.84-27.27,21.01-41.91,29.98c-9.62,5.39-18.72,11.7-28.84,16.17
			c-9.11,3.97-17.28,9.69-26.31,13.82c-9.18,4.68-18.59,8.89-28.23,12.55c-6.66,3.22-14.17,4.56-20.33,8.79
			c-3.51,2.4-7.55,3.81-11.39,5.56c-10.05,4.49-20.05,9.1-29.85,14.1c-1.64,0.53-2.26,1.97-2.48,3.57
			c14.57-1.67,29.23-0.6,43.86-1.01c13.37-0.38,26.68,1.38,40.05,1.12c26.67-0.07,53.34,0.93,80.02,0.48
			c22.98-0.67,45.97-0.35,68.96-0.58c23.29-0.2,46.66,1.48,69.9-0.73c13.35-0.79,26.72,0.15,40.08,0.23
			c14.02,0.11,28.04-0.36,42.07-0.08c7.99,0.35,15.98-0.58,23.97,0.1c11.64-0.44,23.29-0.87,34.95-0.65
			c3.75,0.22,7.28-1.09,10.78-2.23c3.39-1.16,6.99-0.23,10.45,0.08c1-28.31-1.71-56.55-2.07-84.84c-0.11-12.19-4.3-23.86-5.07-35.99
			c-2.38-21.07-4.72-42.16-8.18-63.08c-2.04-12.56-3.85-25.15-5.6-37.74c-4.88-23.37-8.79-46.94-14.24-70.18
			c-5.04-21.92-10.99-43.63-17.63-65.12c-3.56-14.3-8.42-28.22-13.08-42.18c-3.38-9.79-5.89-19.85-9.33-29.62
			c-6.01-18.39-11.78-36.92-19.5-54.69c-4.41-12.68-8.39-25.55-13.98-37.78c-6-12.45-10.37-25.68-17.48-37.58
			c-2.35-4.01-6.36-6.66-10.24-9.01C787.54,469.54,781.05,470.04,775.86,472.91z M573.07,484.49c-2,3.64-1.45,7.95-2.22,11.92
			c-1.24,7.65-2.61,15.31-2.82,23.09c-1.33,19.97-3.84,39.95-2.73,60.01c-0.54,14.12,0.71,28.21,0.6,42.33
			c1.3-0.41,2.94-0.6,3.09-2.28c4.63-13.57,7.51-27.65,11.39-41.44c5.41-17.8,10.98-35.55,16.39-53.35
			c-5.31-12.77-5.12-26.84-7.99-40.17c-2.06-4.65-5.69-8.41-8.15-12.85C577.83,475.82,575.35,480.11,573.07,484.49z M517.79,840.35
			c-8.05,3.33-15.64,7.66-23.37,11.64c-6.88,3.83-14.47,6.62-20.25,12.15c2.6,4.74,7.95,7.83,9.01,13.38
			c1.63,6.68,4.09,13.13,5.69,19.83c11.01-1.74,22.21-5.71,29.84-14.21c4.16,0.27,8.33-0.01,12.47-0.45
			c6.25-0.7,12.44,0.67,18.64,1.19c0.14-1.61,0.3-3.21,0.46-4.79c-9.59-0.95-19.09-2.7-28.29-5.57c1.43-1.56,2.66-3.74,4.99-4.02
			c7.78-1.56,15.72-2.25,23.42-4.24c0.05-1.37,0.1-2.73,0.15-4.07c-9.19-0.87-18.41,1.52-27.55-0.1c4.05-3.85,9.92-2.59,14.97-2.83
			c7.26-0.18,14.85-0.42,21.48,3.09c0.75-1.79,1.39-3.62,2.05-5.44c-11.8-2.24-23.77-3.39-35.59-5.4c-2.38,0.08-2.7-2.64-3.71-4.18
			c4.18,0.8,8.39,1.53,12.64,1.92c8.22,0.64,15.94,4.28,24.27,4.13c0.21-1.48,0.42-2.94,0.64-4.4c-6.35-3.08-13.36-4.21-20.13-6
			C532.53,840.32,525.02,838.59,517.79,840.35z"/>
	</g>
	<path d="M608.2,213.75c1.58-0.6,2.12-0.06,1.62,1.61C608.22,215.95,607.68,215.42,608.2,213.75z"/>
	<path d="M472.19,360.53c1.24-0.7,2.49-1.39,3.74-2.07c4.07,3.54,9.1,6,14.62,5.79c-3.84,1.51-7.88,3.74-12.13,2.62
		C475.45,365.9,474.04,362.79,472.19,360.53z"/>
	<path d="M498.84,362.48c7.49,5.38,10.89,14.4,17.41,20.71c3.42,3.14,6.82,7.3,11.84,7.47c7.99,1.06,15.64,3.75,23.2,6.43
		c0.14,0.69,0.42,2.06,0.56,2.75c-5.17-1.46-10.36-3.5-15.84-3.08c-4.01,0.11-8.19,1.24-12.05-0.38c-4.05-1.5-8.6-2.85-11.27-6.5
		C506.42,381.75,500.69,372.75,498.84,362.48z"/>
	<path d="M548.12,378.8c4.62,3.43,8.83,7.79,14.63,9.15c0.37,2.23,0.75,4.64,2.62,6.17c6.97,6.89,13.73,14.97,23.51,17.79
		c8.43,2.84,17.81,1.52,25.88,5.62c0.51,1.25,1.03,2.5,1.57,3.76c-3.15-1.24-6.44-2.03-9.76-2.56l1.28,2.92
		c-4.45-1.92-8.98-4.03-13.89-4.34c-4.94-0.33-10.09,0.06-14.75-1.93c-6.45-2.41-10.52-8.31-16.11-12.03
		c-3.76-2.38-6.16-6.21-7.98-10.16C552.92,388.31,549.41,384.07,548.12,378.8z"/>
	<path d="M466.67,392.47c8.07-3.14,15.81-8.2,24.81-7.78c0.05,1.01,0.12,2.02,0.21,3.03c-8.02,1.23-15.46,4.58-22.63,8.21
		C468.26,394.77,467.46,393.62,466.67,392.47z"/>
	<path d="M475.91,405.37c7.07-2.08,14.96-5.12,22.05-1.39c-3.54,1.95-7.15,3.79-10.86,5.41
		C483.62,407.4,479.65,406.69,475.91,405.37z"/>
	<path d="M547.54,417.96c1.23,3,2.13,6.19,1.9,9.47c-0.4,6.82,0.05,13.84-2.42,20.35c-2.64-2.95-4.5-6.86-3.45-10.88
		C545.02,430.61,546.65,424.36,547.54,417.96z"/>
	<path d="M531.43,450.08c1.55-0.52,3.26,2.93,1.39,3.15C531.28,454.15,529.42,450.03,531.43,450.08z"/>
	<path d="M513.49,458.65c0.53-1.52,0.96-3.07,1.29-4.64c1.9,1.07,3.81,2.13,5.72,3.19c-1.02,1.15-2.03,2.3-3.03,3.47
		C516.1,460.07,514.72,459.5,513.49,458.65z"/>
	<path d="M181.06,466.65c4.07,1.92,8.32,3.85,11.44,7.2c3.5,3.77,5.91,8.39,8.06,13.03c2.57,5.12,1.94,11.26,0.4,16.6
		c-2.43,5.67-5.92,10.81-8.59,16.36c5.6,6.62,11.08,13.35,15.9,20.58c1.97,3,5.11,6.02,4.44,9.95c-1.09,6.72-6.88,11.18-9.33,17.27
		c-0.5,10.16,1.86,21.02-2.55,30.63c-3.07,5.09-6,10.71-11.26,13.88c-4.77,2.86-8.77,7.11-14.17,8.82c-3,1.02-5.99,2.1-8.87,3.4
		c0.3,4.66,0.72,9.31,1.07,13.97c-1.52,0.47-3.04,0.96-4.56,1.44c-1.06-3.36-2-6.8-2.1-10.34c-0.2-2.76,0.21-5.65-1.05-8.2
		c4.79-2.41,9.17-5.6,14.15-7.64c7.24-3.15,14.35-7.69,18.43-14.65c3.9-7.81,4.76-16.87,3.54-25.45c-0.74-4.95,2.33-9.59,1.39-14.54
		c-0.52-3.64-0.84-7.31-0.98-10.98c1.39,2.93,2.81,5.86,4.4,8.69c2.46-2.51,4.78-5.16,6.95-7.94c-2.13-4.01-4.99-7.54-8.1-10.82
		c-4.33-4.4-5.82-10.56-8.8-15.8c-5.04,7.05-11.06,13.33-17.37,19.25c2.14-6.11,4.71-12.33,9.52-16.86c4.42-4.25,6.36-10.25,7.97-16
		c2.01-7.99,2.05-16.47,0.21-24.49C189.27,477.48,184.77,472.21,181.06,466.65z"/>
	<path d="M305.81,481.53c1.39-0.79,2.8-1.58,4.2-2.36c2.92,3.54,4.21,8.56,8.59,10.72c5.4,3.19,12.32,6.19,13.27,13.25
		c-7.3-2.93-13.1-8.37-19.32-13C309.56,487.93,307.52,484.77,305.81,481.53z"/>
	<path d="M307.93,500.56c3.32,1.89,6.87,3.69,9.39,6.65c1.79,1.4-0.63,2.99-1.16,4.41C312.78,508.46,310,504.7,307.93,500.56z"/>
	<path d="M165.77,530.19c4.76-4.03,6.91-10.17,11.33-14.51c-0.16,12.12-10.07,22.26-21.49,25
		C157.49,535.91,162.12,533.42,165.77,530.19z"/>
	<path d="M149.11,557.43c0.3-4.75,3.97-8.17,7.14-11.3c-0.9,8.65-1.46,17.57-4.99,25.64c-0.99,2.43-3.21,3.96-5.2,5.53
		c-2.95-0.99-6.03-1.29-8.38,1.12c1.45-2.24,3.15-4.35,5.41-5.83C148.03,569.27,148.49,562.79,149.11,557.43z"/>
	<path d="M110.42,567.84c4.18-9.52,18.15-12.39,25.93-5.62c2.66,2.77,2.89,6.87,3.59,10.45c-1.97-2.73-3.43-5.87-5.86-8.23
		c-3.19-2.35-7.32-2.62-11.07-3.37c-2.78,1.9-6.69,3.05-7.88,6.54c-1.22,3.76-2.98,7.99-1.19,11.87
		c2.81,7.15,8.54,12.53,13.82,17.89c2.44-0.04,4.88-0.06,7.32,0c-5.01,1.5-10.74,2.27-15.44-0.6c-5.83-2.68-7.69-9.28-10.19-14.64
		C107.28,577.57,108.2,572.19,110.42,567.84z"/>
	<path d="M257.52,692.04c1.76-3.48,3.67-6.94,6.4-9.77c-0.02,4.43-1.4,8.72-3.72,12.47c-7.06,11.68-13.59,24.09-15.76,37.71
		c-1.51,10.19,4.25,19.91,2.61,30.1c-1.49,8.95-7.21,16.39-13.14,22.94c-4.72,5.18-10.51,10.02-12.51,17
		c-0.17-1.74-0.38-3.48-0.59-5.19c2.53-3.48,4.42-7.37,7.01-10.79c3.72-4.4,8.23-8.29,10.67-13.62c1.58-3.58,2.56-7.42,3.18-11.27
		c0.93-5.42-1.86-10.42-3.11-15.54c-1.41-5.63-3.44-11.46-2.25-17.32c1.7-8.64,6.23-16.41,11.46-23.39
		C250.99,700.91,255.05,697.02,257.52,692.04z"/>
	<path d="M191.16,755.93c0.83-7.02,0.22-14.4,3.33-20.96c0.82,8.81,1.62,17.72,0.57,26.54c-0.39,4.35-3.65,7.55-6.58,10.46
		c-2.6,2.51-4.16,5.82-5.9,8.94c0.29-3.38,0.12-6.97,1.77-10.04C186.82,765.99,190.52,761.53,191.16,755.93z"/>
	<path d="M215.96,776.5c2.97-3.26,1.52-9.7,6.54-10.93c-1.18,6.55-2.77,13.26-6.67,18.79c-5.48,7.9-9.13,17.36-8.92,27.07
		c0.34,4.7,0.67,9.76-2.04,13.9c-3.05,4.54-6.38,8.97-10.2,12.9c0.21-4.12,2.09-7.83,2.96-11.79c1.1-7.22-0.1-14.58,1.07-21.79
		c0.9-6.23,4.75-11.42,7.78-16.75C208.93,783.54,212.62,780.13,215.96,776.5z"/>
	<path d="M84.18,998.37c1.42-0.45,1.88,0.03,1.38,1.42C84.14,1000.23,83.68,999.76,84.18,998.37z"/>
</g>
</svg>
